<?xml version="1.0" encoding="UTF-8"?><svg id="Layer_1" xmlns="http://www.w3.org/2000/svg" xmlns:xlink="http://www.w3.org/1999/xlink" viewBox="0 0 425.27 263.29"><defs><style>.cls-1{opacity:.1;}.cls-1,.cls-2{fill:#556e7c;}.cls-2{opacity:.09;}.cls-3{fill:url(#linear-gradient);}.cls-4{stroke-width:.36px;}.cls-4,.cls-5{opacity:.5;}.cls-4,.cls-5,.cls-6,.cls-7,.cls-8{isolation:isolate;}.cls-4,.cls-5,.cls-7,.cls-8{fill:none;stroke:#7cf785;stroke-miterlimit:10;}.cls-9{fill:#f9f200;}.cls-10{fill:#f9fbfc;}.cls-11{fill:#007935;}.cls-12{fill:#ef9d73;}.cls-13{fill:#fff;}.cls-14{fill:#ffbf9a;}.cls-15{fill:#ffbd98;}.cls-16{fill:#f24c88;}.cls-17{fill:#feca7a;}.cls-18{fill:#8effef;}.cls-19{fill:#b3b3b3;}.cls-20{fill:#a5d3f2;}.cls-21{fill:#dcf2ff;}.cls-22,.cls-6{fill:#112d59;}.cls-23{fill:#161c24;}.cls-24{fill:#13301d;}.cls-25{fill:#212121;}.cls-26{fill:#228489;}.cls-27{fill:#202b33;}.cls-28{fill:#43566c;}.cls-29{fill:#3ebfb4;}.cls-30{fill:#364557;}.cls-31{fill:#0a0a0a;}.cls-32{fill:#9b9895;}.cls-33{fill:#344354;}.cls-34{fill:#388c55;}.cls-35{fill:#4c4c4c;}.cls-36{fill:#516375;}.cls-5,.cls-7,.cls-8{stroke-width:.34px;}.cls-6,.cls-37{opacity:.53;}.cls-38{fill:url(#radial-gradient-6);}.cls-39{fill:url(#radial-gradient-5);}.cls-40{fill:url(#radial-gradient-3);}.cls-41{fill:url(#radial-gradient-4);}.cls-42{fill:url(#radial-gradient-2);}.cls-7{opacity:.62;}.cls-43{fill:url(#linear-gradient-8);}.cls-44{fill:url(#linear-gradient-9);}.cls-45{fill:url(#linear-gradient-3);}.cls-46{fill:url(#linear-gradient-4);}.cls-47{fill:url(#linear-gradient-2);}.cls-48{fill:url(#linear-gradient-6);}.cls-49{fill:url(#linear-gradient-7);}.cls-50{fill:url(#linear-gradient-5);}.cls-8{opacity:.26;}.cls-51{fill:url(#radial-gradient);}.cls-52{fill:url(#linear-gradient-59);}.cls-53{fill:url(#linear-gradient-57);}.cls-54{fill:url(#linear-gradient-58);}.cls-55{fill:url(#linear-gradient-55);}.cls-56{fill:url(#linear-gradient-56);}.cls-57{fill:url(#linear-gradient-53);}.cls-58{fill:url(#linear-gradient-54);}.cls-59{fill:url(#linear-gradient-51);}.cls-60{fill:url(#linear-gradient-52);}.cls-61{fill:url(#linear-gradient-50);}.cls-62{fill:url(#linear-gradient-63);}.cls-63{fill:url(#linear-gradient-60);}.cls-64{fill:url(#linear-gradient-62);}.cls-65{fill:url(#linear-gradient-61);}.cls-66{fill:url(#linear-gradient-41);}.cls-67{fill:url(#linear-gradient-40);}.cls-68{fill:url(#linear-gradient-43);}.cls-69{fill:url(#linear-gradient-42);}.cls-70{fill:url(#linear-gradient-45);}.cls-71{fill:url(#linear-gradient-46);}.cls-72{fill:url(#linear-gradient-44);}.cls-73{fill:url(#linear-gradient-49);}.cls-74{fill:url(#linear-gradient-47);}.cls-75{fill:url(#linear-gradient-48);}.cls-76{fill:url(#linear-gradient-14);}.cls-77{fill:url(#linear-gradient-18);}.cls-78{fill:url(#linear-gradient-22);}.cls-79{fill:url(#linear-gradient-20);}.cls-80{fill:url(#linear-gradient-21);}.cls-81{fill:url(#linear-gradient-23);}.cls-82{fill:url(#linear-gradient-15);}.cls-83{fill:url(#linear-gradient-19);}.cls-84{fill:url(#linear-gradient-16);}.cls-85{fill:url(#linear-gradient-17);}.cls-86{fill:url(#linear-gradient-13);}.cls-87{fill:url(#linear-gradient-12);}.cls-88{fill:url(#linear-gradient-10);}.cls-89{fill:url(#linear-gradient-11);}.cls-90{fill:url(#linear-gradient-27);}.cls-91{fill:url(#linear-gradient-24);}.cls-92{fill:url(#linear-gradient-26);}.cls-93{fill:url(#linear-gradient-38);}.cls-94{fill:url(#linear-gradient-35);}.cls-95{fill:url(#linear-gradient-37);}.cls-96{fill:url(#linear-gradient-34);}.cls-97{fill:url(#linear-gradient-39);}.cls-98{fill:url(#linear-gradient-36);}.cls-99{fill:url(#linear-gradient-25);}.cls-100{fill:url(#linear-gradient-28);}.cls-101{fill:url(#linear-gradient-29);}.cls-102{fill:url(#linear-gradient-33);}.cls-103{fill:url(#linear-gradient-30);}.cls-104{fill:url(#linear-gradient-32);}.cls-105{fill:url(#linear-gradient-31);}</style><radialGradient id="radial-gradient" cx="368.12" cy="147.42" fx="368.12" fy="147.42" r="33.52" gradientTransform="translate(0 266) scale(1 -1)" gradientUnits="userSpaceOnUse"><stop offset="0" stop-color="#40adbf"/><stop offset=".47" stop-color="#3eabbc"/><stop offset=".74" stop-color="#39a5b4"/><stop offset=".96" stop-color="#319aa6"/><stop offset="1" stop-color="#2f98a3"/></radialGradient><radialGradient id="radial-gradient-2" cx="314.1" cy="241.75" fx="314.1" fy="241.75" r="34.31" gradientTransform="translate(0 266) scale(1 -1)" gradientUnits="userSpaceOnUse"><stop offset="0" stop-color="#bfe5e8"/><stop offset=".95" stop-color="#86d1d7"/></radialGradient><radialGradient id="radial-gradient-3" cx="300.09" cy="140.48" fx="300.09" fy="140.48" r="23.73" gradientTransform="translate(0 266) scale(1 -1)" gradientUnits="userSpaceOnUse"><stop offset=".48" stop-color="#2f98a3"/><stop offset=".69" stop-color="#2c97a2"/><stop offset=".81" stop-color="#2495a2"/><stop offset=".91" stop-color="#1692a2"/><stop offset=".99" stop-color="#028ea2"/><stop offset="1" stop-color="#008ea2"/></radialGradient><radialGradient id="radial-gradient-4" cx="274.07" cy="160.04" fx="274.07" fy="160.04" r="3.17" gradientTransform="translate(0 266) scale(1 -1)" gradientUnits="userSpaceOnUse"><stop offset="0" stop-color="#bfe5e8"/><stop offset=".95" stop-color="#86d1d7"/></radialGradient><radialGradient id="radial-gradient-5" cx="274.07" cy="190.54" fx="274.07" fy="190.54" r="20.74" gradientTransform="translate(0 266) scale(1 -1)" gradientUnits="userSpaceOnUse"><stop offset=".48" stop-color="#2f98a3"/><stop offset=".69" stop-color="#2c97a2"/><stop offset=".81" stop-color="#2495a2"/><stop offset=".91" stop-color="#1692a2"/><stop offset=".99" stop-color="#028ea2"/><stop offset="1" stop-color="#008ea2"/></radialGradient><radialGradient id="radial-gradient-6" cx="330.26" cy="236.92" fx="330.26" fy="236.92" r=".72" gradientTransform="translate(0 266) scale(1 -1)" gradientUnits="userSpaceOnUse"><stop offset="0" stop-color="#feca7a"/><stop offset=".23" stop-color="#f9c97b"/><stop offset=".49" stop-color="#ecc87f"/><stop offset=".75" stop-color="#d6c785"/><stop offset="1" stop-color="#bbc68e"/></radialGradient><linearGradient id="linear-gradient" x1="-2610.33" y1="82.85" x2="-2608.19" y2="82.85" gradientTransform="translate(-2541.21 266) rotate(-180)" gradientUnits="userSpaceOnUse"><stop offset=".13" stop-color="#13161a"/><stop offset=".14" stop-color="#151a21"/><stop offset=".47" stop-color="#151a21"/><stop offset=".48" stop-color="#1e2830"/><stop offset=".88" stop-color="#1e2830"/><stop offset=".88" stop-color="#151a21"/></linearGradient><linearGradient id="linear-gradient-2" x1="-2610.48" y1="83.7" x2="-2608.04" y2="83.7" gradientTransform="translate(-2541.21 266) rotate(-180)" gradientUnits="userSpaceOnUse"><stop offset=".13" stop-color="#13161a"/><stop offset=".14" stop-color="#232d39"/><stop offset=".47" stop-color="#232d39"/><stop offset=".48" stop-color="#2d3c48"/><stop offset=".88" stop-color="#2d3c48"/><stop offset=".88" stop-color="#232d39"/></linearGradient><linearGradient id="linear-gradient-3" x1="-2607.38" y1="84.76" x2="-2605.24" y2="84.76" gradientTransform="translate(-2541.21 266) rotate(-180)" gradientUnits="userSpaceOnUse"><stop offset=".13" stop-color="#13161a"/><stop offset=".14" stop-color="#151a21"/><stop offset=".47" stop-color="#151a21"/><stop offset=".48" stop-color="#1e2830"/><stop offset=".88" stop-color="#1e2830"/><stop offset=".88" stop-color="#151a21"/></linearGradient><linearGradient id="linear-gradient-4" x1="-2607.53" y1="85.61" x2="-2605.09" y2="85.61" gradientTransform="translate(-2541.21 266) rotate(-180)" gradientUnits="userSpaceOnUse"><stop offset=".13" stop-color="#13161a"/><stop offset=".14" stop-color="#232d39"/><stop offset=".47" stop-color="#232d39"/><stop offset=".48" stop-color="#2d3c48"/><stop offset=".88" stop-color="#2d3c48"/><stop offset=".88" stop-color="#232d39"/></linearGradient><linearGradient id="linear-gradient-5" x1="-2674.51" y1="120.07" x2="-2672.36" y2="120.07" gradientTransform="translate(-2541.21 266) rotate(-180)" gradientUnits="userSpaceOnUse"><stop offset=".13" stop-color="#13161a"/><stop offset=".14" stop-color="#151a21"/><stop offset=".47" stop-color="#151a21"/><stop offset=".48" stop-color="#1e2830"/><stop offset=".88" stop-color="#1e2830"/><stop offset=".88" stop-color="#151a21"/></linearGradient><linearGradient id="linear-gradient-6" x1="-2674.65" y1="120.92" x2="-2672.21" y2="120.92" gradientTransform="translate(-2541.21 266) rotate(-180)" gradientUnits="userSpaceOnUse"><stop offset=".13" stop-color="#13161a"/><stop offset=".14" stop-color="#232d39"/><stop offset=".47" stop-color="#232d39"/><stop offset=".48" stop-color="#2d3c48"/><stop offset=".88" stop-color="#2d3c48"/><stop offset=".88" stop-color="#232d39"/></linearGradient><linearGradient id="linear-gradient-7" x1="-2671.56" y1="121.98" x2="-2669.41" y2="121.98" gradientTransform="translate(-2541.21 266) rotate(-180)" gradientUnits="userSpaceOnUse"><stop offset=".13" stop-color="#13161a"/><stop offset=".14" stop-color="#151a21"/><stop offset=".47" stop-color="#151a21"/><stop offset=".48" stop-color="#1e2830"/><stop offset=".88" stop-color="#1e2830"/><stop offset=".88" stop-color="#151a21"/></linearGradient><linearGradient id="linear-gradient-8" x1="-2671.71" y1="122.82" x2="-2669.27" y2="122.82" gradientTransform="translate(-2541.21 266) rotate(-180)" gradientUnits="userSpaceOnUse"><stop offset=".13" stop-color="#13161a"/><stop offset=".14" stop-color="#232d39"/><stop offset=".47" stop-color="#232d39"/><stop offset=".48" stop-color="#2d3c48"/><stop offset=".88" stop-color="#2d3c48"/><stop offset=".88" stop-color="#232d39"/></linearGradient><linearGradient id="linear-gradient-9" x1="172.61" y1="92.09" x2="180.24" y2="86.33" gradientTransform="translate(0 266) scale(1 -1)" gradientUnits="userSpaceOnUse"><stop offset="0" stop-color="#deedff"/><stop offset="1" stop-color="#9fa3cc"/></linearGradient><linearGradient id="linear-gradient-10" x1="174.66" y1="90.7" x2="181.66" y2="90.7" gradientTransform="translate(0 266) scale(1 -1)" gradientUnits="userSpaceOnUse"><stop offset="0" stop-color="#fff"/><stop offset="1" stop-color="#bdc0d9"/></linearGradient><linearGradient id="linear-gradient-11" x1="125.24" y1="58.93" x2="176.87" y2="86.07" gradientTransform="translate(0 266) scale(1 -1)" gradientUnits="userSpaceOnUse"><stop offset="0" stop-color="#fff"/><stop offset="1" stop-color="#bdc0d9"/></linearGradient><linearGradient id="linear-gradient-12" x1="127.83" y1="60.3" x2="174.64" y2="84.9" gradientTransform="translate(0 266) scale(1 -1)" gradientUnits="userSpaceOnUse"><stop offset="0" stop-color="#3a4754"/><stop offset="1" stop-color="#222931"/></linearGradient><linearGradient id="linear-gradient-13" x1="124.01" y1="64.29" x2="130.41" y2="59.82" gradientTransform="translate(0 266) scale(1 -1)" gradientUnits="userSpaceOnUse"><stop offset="0" stop-color="#fff"/><stop offset="1" stop-color="#bdc0d9"/></linearGradient><linearGradient id="linear-gradient-14" x1="122.96" y1="62.69" x2="131.36" y2="51.12" gradientTransform="translate(0 266) scale(1 -1)" gradientUnits="userSpaceOnUse"><stop offset="0" stop-color="#deedff"/><stop offset="1" stop-color="#9fa3cc"/></linearGradient><linearGradient id="linear-gradient-15" x1="129.1" y1="71.29" x2="181.68" y2="71.29" gradientTransform="translate(0 266) scale(1 -1)" gradientUnits="userSpaceOnUse"><stop offset="0" stop-color="#deedff"/><stop offset="1" stop-color="#9fa3cc"/></linearGradient><linearGradient id="linear-gradient-16" x1="180.89" y1="87.4" x2="188.52" y2="81.65" gradientTransform="translate(0 266) scale(1 -1)" gradientUnits="userSpaceOnUse"><stop offset="0" stop-color="#deedff"/><stop offset="1" stop-color="#9fa3cc"/></linearGradient><linearGradient id="linear-gradient-17" x1="182.94" y1="86.01" x2="189.94" y2="86.01" gradientTransform="translate(0 266) scale(1 -1)" gradientUnits="userSpaceOnUse"><stop offset="0" stop-color="#fff"/><stop offset="1" stop-color="#bdc0d9"/></linearGradient><linearGradient id="linear-gradient-18" x1="133.52" y1="54.25" x2="185.15" y2="81.38" gradientTransform="translate(0 266) scale(1 -1)" gradientUnits="userSpaceOnUse"><stop offset="0" stop-color="#fff"/><stop offset="1" stop-color="#bdc0d9"/></linearGradient><linearGradient id="linear-gradient-19" x1="136.11" y1="55.61" x2="182.92" y2="80.21" gradientTransform="translate(0 266) scale(1 -1)" gradientUnits="userSpaceOnUse"><stop offset="0" stop-color="#3a4754"/><stop offset="1" stop-color="#222931"/></linearGradient><linearGradient id="linear-gradient-20" x1="132.29" y1="59.6" x2="138.7" y2="55.14" gradientTransform="translate(0 266) scale(1 -1)" gradientUnits="userSpaceOnUse"><stop offset="0" stop-color="#fff"/><stop offset="1" stop-color="#bdc0d9"/></linearGradient><linearGradient id="linear-gradient-21" x1="131.24" y1="58.01" x2="139.64" y2="46.43" gradientTransform="translate(0 266) scale(1 -1)" gradientUnits="userSpaceOnUse"><stop offset="0" stop-color="#deedff"/><stop offset="1" stop-color="#9fa3cc"/></linearGradient><linearGradient id="linear-gradient-22" x1="137.38" y1="66.6" x2="189.96" y2="66.6" gradientTransform="translate(0 266) scale(1 -1)" gradientUnits="userSpaceOnUse"><stop offset="0" stop-color="#deedff"/><stop offset="1" stop-color="#9fa3cc"/></linearGradient><linearGradient id="linear-gradient-23" x1="189.28" y1="82.59" x2="196.92" y2="76.83" gradientTransform="translate(0 266) scale(1 -1)" gradientUnits="userSpaceOnUse"><stop offset="0" stop-color="#deedff"/><stop offset="1" stop-color="#9fa3cc"/></linearGradient><linearGradient id="linear-gradient-24" x1="191.34" y1="81.19" x2="198.33" y2="81.19" gradientTransform="translate(0 266) scale(1 -1)" gradientUnits="userSpaceOnUse"><stop offset="0" stop-color="#fff"/><stop offset="1" stop-color="#bdc0d9"/></linearGradient><linearGradient id="linear-gradient-25" x1="141.91" y1="49.43" x2="193.54" y2="76.57" gradientTransform="translate(0 266) scale(1 -1)" gradientUnits="userSpaceOnUse"><stop offset="0" stop-color="#fff"/><stop offset="1" stop-color="#bdc0d9"/></linearGradient><linearGradient id="linear-gradient-26" x1="144.5" y1="50.79" x2="191.31" y2="75.4" gradientTransform="translate(0 266) scale(1 -1)" gradientUnits="userSpaceOnUse"><stop offset="0" stop-color="#3a4754"/><stop offset="1" stop-color="#222931"/></linearGradient><linearGradient id="linear-gradient-27" x1="140.69" y1="54.78" x2="147.09" y2="50.32" gradientTransform="translate(0 266) scale(1 -1)" gradientUnits="userSpaceOnUse"><stop offset="0" stop-color="#fff"/><stop offset="1" stop-color="#bdc0d9"/></linearGradient><linearGradient id="linear-gradient-28" x1="139.63" y1="53.19" x2="148.03" y2="41.62" gradientTransform="translate(0 266) scale(1 -1)" gradientUnits="userSpaceOnUse"><stop offset="0" stop-color="#deedff"/><stop offset="1" stop-color="#9fa3cc"/></linearGradient><linearGradient id="linear-gradient-29" x1="145.77" y1="61.79" x2="198.35" y2="61.79" gradientTransform="translate(0 266) scale(1 -1)" gradientUnits="userSpaceOnUse"><stop offset="0" stop-color="#deedff"/><stop offset="1" stop-color="#9fa3cc"/></linearGradient><linearGradient id="linear-gradient-30" x1="-2687.8" y1="38.48" x2="-2685.66" y2="38.48" gradientTransform="translate(-2541.21 266) rotate(-180)" gradientUnits="userSpaceOnUse"><stop offset=".13" stop-color="#13161a"/><stop offset=".14" stop-color="#151a21"/><stop offset=".47" stop-color="#151a21"/><stop offset=".48" stop-color="#1e2830"/><stop offset=".88" stop-color="#1e2830"/><stop offset=".88" stop-color="#151a21"/></linearGradient><linearGradient id="linear-gradient-31" x1="-2687.95" y1="39.33" x2="-2685.51" y2="39.33" gradientTransform="translate(-2541.21 266) rotate(-180)" gradientUnits="userSpaceOnUse"><stop offset=".13" stop-color="#13161a"/><stop offset=".14" stop-color="#232d39"/><stop offset=".47" stop-color="#232d39"/><stop offset=".48" stop-color="#2d3c48"/><stop offset=".88" stop-color="#2d3c48"/><stop offset=".88" stop-color="#232d39"/></linearGradient><linearGradient id="linear-gradient-32" x1="-2751.36" y1="75.53" x2="-2749.21" y2="75.53" gradientTransform="translate(-2541.21 266) rotate(-180)" gradientUnits="userSpaceOnUse"><stop offset=".13" stop-color="#13161a"/><stop offset=".14" stop-color="#151a21"/><stop offset=".47" stop-color="#151a21"/><stop offset=".48" stop-color="#1e2830"/><stop offset=".88" stop-color="#1e2830"/><stop offset=".88" stop-color="#151a21"/></linearGradient><linearGradient id="linear-gradient-33" x1="-2751.5" y1="76.38" x2="-2749.06" y2="76.38" gradientTransform="translate(-2541.21 266) rotate(-180)" gradientUnits="userSpaceOnUse"><stop offset=".13" stop-color="#13161a"/><stop offset=".14" stop-color="#232d39"/><stop offset=".47" stop-color="#232d39"/><stop offset=".48" stop-color="#2d3c48"/><stop offset=".88" stop-color="#2d3c48"/><stop offset=".88" stop-color="#232d39"/></linearGradient><linearGradient id="linear-gradient-34" x1="79.66" y1="83.23" x2="100.03" y2="83.23" gradientTransform="translate(0 266) scale(1 -1)" gradientUnits="userSpaceOnUse"><stop offset="0" stop-color="#222931"/><stop offset=".99" stop-color="#0e1114"/></linearGradient><linearGradient id="linear-gradient-35" x1="91.85" y1="81.32" x2="98.62" y2="81.32" gradientTransform="translate(0 266) scale(1 -1)" gradientUnits="userSpaceOnUse"><stop offset="0" stop-color="#ffa617"/><stop offset="1" stop-color="#ff7c17"/></linearGradient><linearGradient id="linear-gradient-36" x1="91.58" y1="82.18" x2="97.18" y2="84.85" gradientTransform="translate(0 266) scale(1 -1)" gradientUnits="userSpaceOnUse"><stop offset="0" stop-color="#ffcd17"/><stop offset="1" stop-color="#ffa617"/></linearGradient><linearGradient id="linear-gradient-37" x1="82.48" y1="82.34" x2="88.4" y2="82.34" gradientTransform="translate(0 266) scale(1 -1)" gradientUnits="userSpaceOnUse"><stop offset="0" stop-color="#ffa617"/><stop offset="1" stop-color="#ff7c17"/></linearGradient><linearGradient id="linear-gradient-38" x1="84.23" y1="85.83" x2="90.28" y2="83" gradientTransform="translate(0 266) scale(1 -1)" gradientUnits="userSpaceOnUse"><stop offset="0" stop-color="#ffcd17"/><stop offset="1" stop-color="#ffa617"/></linearGradient><linearGradient id="linear-gradient-39" x1="92.94" y1="80.64" x2="97.23" y2="78.54" gradientTransform="translate(0 266) scale(1 -1)" gradientUnits="userSpaceOnUse"><stop offset="0" stop-color="#ffcd17"/><stop offset="1" stop-color="#ffa617"/></linearGradient><linearGradient id="linear-gradient-40" x1="96.36" y1="77.84" x2="99.46" y2="77.84" gradientTransform="translate(0 266) scale(1 -1)" gradientUnits="userSpaceOnUse"><stop offset="0" stop-color="#ffa617"/><stop offset="1" stop-color="#ff7c17"/></linearGradient><linearGradient id="linear-gradient-41" x1="90.67" y1="77.51" x2="96.36" y2="77.51" gradientTransform="translate(0 266) scale(1 -1)" gradientUnits="userSpaceOnUse"><stop offset="0" stop-color="#ffa617"/><stop offset="1" stop-color="#ff7c17"/></linearGradient><linearGradient id="linear-gradient-42" x1="81.63" y1="78.38" x2="88.04" y2="78.38" gradientTransform="translate(0 266) scale(1 -1)" gradientUnits="userSpaceOnUse"><stop offset="0" stop-color="#ffa617"/><stop offset="1" stop-color="#ff7c17"/></linearGradient><linearGradient id="linear-gradient-43" x1="80.19" y1="78.67" x2="81.64" y2="78.67" gradientTransform="translate(0 266) scale(1 -1)" gradientUnits="userSpaceOnUse"><stop offset="0" stop-color="#ffa617"/><stop offset="1" stop-color="#ff7c17"/></linearGradient><linearGradient id="linear-gradient-44" x1="80.6" y1="80.33" x2="88.11" y2="78.76" gradientTransform="translate(0 266) scale(1 -1)" gradientUnits="userSpaceOnUse"><stop offset="0" stop-color="#ffcd17"/><stop offset="1" stop-color="#ffa617"/></linearGradient><linearGradient id="linear-gradient-45" x1="85.09" y1="74.89" x2="92.13" y2="74.89" gradientTransform="translate(0 266) scale(1 -1)" gradientUnits="userSpaceOnUse"><stop offset="0" stop-color="#ffa617"/><stop offset="1" stop-color="#ff7c17"/></linearGradient><linearGradient id="linear-gradient-46" x1="86.98" y1="78.13" x2="91.06" y2="74.82" gradientTransform="translate(0 266) scale(1 -1)" gradientUnits="userSpaceOnUse"><stop offset="0" stop-color="#ffcd17"/><stop offset="1" stop-color="#ffa617"/></linearGradient><linearGradient id="linear-gradient-47" x1="78.33" y1="76.98" x2="101.37" y2="76.98" gradientTransform="translate(0 266) scale(1 -1)" gradientUnits="userSpaceOnUse"><stop offset="0" stop-color="#222931"/><stop offset=".99" stop-color="#0e1114"/></linearGradient><linearGradient id="linear-gradient-48" x1="78.33" y1="81.65" x2="101.37" y2="81.65" gradientTransform="translate(0 266) scale(1 -1)" gradientUnits="userSpaceOnUse"><stop offset="0" stop-color="#3e4b59"/><stop offset="1" stop-color="#222931"/></linearGradient><linearGradient id="linear-gradient-49" x1="196.41" y1="69.96" x2="205.57" y2="69.96" gradientTransform="translate(0 266) scale(1 -1)" gradientUnits="userSpaceOnUse"><stop offset="0" stop-color="#3a4754"/><stop offset="1" stop-color="#222931"/></linearGradient><linearGradient id="linear-gradient-50" x1="194.54" y1="67.85" x2="196.41" y2="67.85" gradientTransform="translate(0 266) scale(1 -1)" gradientUnits="userSpaceOnUse"><stop offset="0" stop-color="#3a4754"/><stop offset="1" stop-color="#222931"/></linearGradient><linearGradient id="linear-gradient-51" x1="194.54" y1="72.22" x2="205.57" y2="72.22" gradientTransform="translate(0 266) scale(1 -1)" gradientUnits="userSpaceOnUse"><stop offset="0" stop-color="#3a4754"/><stop offset="1" stop-color="#222931"/></linearGradient><linearGradient id="linear-gradient-52" x1="185.22" y1="63.46" x2="194.38" y2="63.46" gradientTransform="translate(0 266) scale(1 -1)" gradientUnits="userSpaceOnUse"><stop offset="0" stop-color="#3a4754"/><stop offset="1" stop-color="#222931"/></linearGradient><linearGradient id="linear-gradient-53" x1="183.35" y1="61.34" x2="185.22" y2="61.34" gradientTransform="translate(0 266) scale(1 -1)" gradientUnits="userSpaceOnUse"><stop offset="0" stop-color="#3a4754"/><stop offset="1" stop-color="#222931"/></linearGradient><linearGradient id="linear-gradient-54" x1="183.35" y1="65.71" x2="194.38" y2="65.71" gradientTransform="translate(0 266) scale(1 -1)" gradientUnits="userSpaceOnUse"><stop offset="0" stop-color="#3a4754"/><stop offset="1" stop-color="#222931"/></linearGradient><linearGradient id="linear-gradient-55" x1="174.04" y1="56.96" x2="183.2" y2="56.96" gradientTransform="translate(0 266) scale(1 -1)" gradientUnits="userSpaceOnUse"><stop offset="0" stop-color="#3a4754"/><stop offset="1" stop-color="#222931"/></linearGradient><linearGradient id="linear-gradient-56" x1="172.17" y1="54.85" x2="174.04" y2="54.85" gradientTransform="translate(0 266) scale(1 -1)" gradientUnits="userSpaceOnUse"><stop offset="0" stop-color="#3a4754"/><stop offset="1" stop-color="#222931"/></linearGradient><linearGradient id="linear-gradient-57" x1="172.17" y1="59.22" x2="183.2" y2="59.22" gradientTransform="translate(0 266) scale(1 -1)" gradientUnits="userSpaceOnUse"><stop offset="0" stop-color="#3a4754"/><stop offset="1" stop-color="#222931"/></linearGradient><linearGradient id="linear-gradient-58" x1="162.87" y1="50.48" x2="172.02" y2="50.48" gradientTransform="translate(0 266) scale(1 -1)" gradientUnits="userSpaceOnUse"><stop offset="0" stop-color="#3a4754"/><stop offset="1" stop-color="#222931"/></linearGradient><linearGradient id="linear-gradient-59" x1="161" y1="48.35" x2="162.87" y2="48.35" gradientTransform="translate(0 266) scale(1 -1)" gradientUnits="userSpaceOnUse"><stop offset="0" stop-color="#3a4754"/><stop offset="1" stop-color="#222931"/></linearGradient><linearGradient id="linear-gradient-60" x1="161" y1="52.72" x2="172.02" y2="52.72" gradientTransform="translate(0 266) scale(1 -1)" gradientUnits="userSpaceOnUse"><stop offset="0" stop-color="#3a4754"/><stop offset="1" stop-color="#222931"/></linearGradient><linearGradient id="linear-gradient-61" x1="151.69" y1="43.98" x2="160.85" y2="43.98" gradientTransform="translate(0 266) scale(1 -1)" gradientUnits="userSpaceOnUse"><stop offset="0" stop-color="#3a4754"/><stop offset="1" stop-color="#222931"/></linearGradient><linearGradient id="linear-gradient-62" x1="149.82" y1="41.86" x2="151.69" y2="41.86" gradientTransform="translate(0 266) scale(1 -1)" gradientUnits="userSpaceOnUse"><stop offset="0" stop-color="#3a4754"/><stop offset="1" stop-color="#222931"/></linearGradient><linearGradient id="linear-gradient-63" x1="149.82" y1="46.23" x2="160.85" y2="46.23" gradientTransform="translate(0 266) scale(1 -1)" gradientUnits="userSpaceOnUse"><stop offset="0" stop-color="#3a4754"/><stop offset="1" stop-color="#222931"/></linearGradient></defs><path class="cls-2" d="m328.5,126.92c0,24.74-26.54,38.34-20.4,66.78,8.1,37.47-57.81,52.66-99.04,52.66-65.96,0-119.43-53.47-119.43-119.43,0-32.87,47-33.6,68.48-55.19,21.63-21.74,17.86-64.24,50.95-64.24,65.96,0,119.43,53.47,119.43,119.43Z"/><g id="Layer_2"><g id="BACKGROUND"><g><path class="cls-17" d="m138.45,246.01c-.09,0-.17-.02-.25-.07l-95.53-55.12c-.15-.09-.25-.25-.25-.43s.1-.34.25-.43l95.5-55.1c.15-.09.35-.09.5,0l95.49,55.1c.15.09.25.25.25.43s-.1.34-.25.43l-95.46,55.12c-.08.04-.16.07-.25.07h0Zm-94.53-55.62l94.53,54.54,94.46-54.54-94.49-54.53-94.5,54.53h0Z"/><path class="cls-17" d="m138.46,253.89c-.09,0-.17-.02-.25-.07l-109.17-62.99c-.15-.09-.25-.25-.25-.43s.1-.34.25-.43l109.15-62.98c.15-.09.35-.09.5,0l109.13,62.98c.15.09.25.25.25.43s-.1.34-.25.43l-109.11,62.99c-.08.04-.16.07-.25.07Zm-108.17-63.49l108.17,62.41,108.11-62.41-108.13-62.4s-108.15,62.4-108.15,62.4Z"/><path class="cls-17" d="m138.46,263.29c-.09,0-.17-.02-.25-.07L12.74,190.83c-.15-.09-.25-.25-.25-.43s.1-.34.25-.43l125.44-72.38c.15-.09.35-.09.5,0l125.43,72.38c.15.09.25.25.25.43s-.1.34-.25.43l-125.4,72.4c-.08.04-.16.07-.25.07h0ZM13.99,190.4l124.48,71.82,124.4-71.82-124.43-71.8L13.99,190.4Z"/><path class="cls-17" d="m335.19,141.37c-18.78,0-37.57-4.13-51.92-12.4-14.03-8.12-21.77-18.93-21.78-30.44-.01-11.43,7.62-22.16,21.47-30.21,28.5-16.56,75.01-16.56,103.69,0,14.03,8.1,21.77,18.9,21.78,30.42.02,11.44-7.6,22.17-21.45,30.21-14.25,8.28-33.01,12.42-51.8,12.42h0Zm-.45-84.49c-18.59,0-37.17,4.1-51.27,12.3-13.54,7.87-20.99,18.29-20.98,29.35,0,11.14,7.57,21.64,21.28,29.58,28.44,16.38,74.52,16.37,102.72-.02,13.52-7.86,20.96-18.28,20.95-29.35-.02-11.15-7.57-21.64-21.28-29.56-14.2-8.2-32.82-12.3-51.41-12.3h-.01Z"/><path class="cls-17" d="m335.22,145.62c-20.66,0-41.34-4.55-57.13-13.64-15.43-8.93-23.94-20.82-23.95-33.46,0-12.56,8.37-24.36,23.61-33.21,31.35-18.22,82.53-18.22,114.09,0,15.43,8.91,23.93,20.78,23.95,33.44.02,12.57-8.36,24.37-23.58,33.22-15.67,9.11-36.32,13.66-56.99,13.66h0Zm-.5-93.01c-20.48,0-40.93,4.51-56.47,13.54-14.92,8.67-23.12,20.16-23.11,32.35,0,12.28,8.34,23.86,23.45,32.6,31.32,18.04,82.06,18.03,113.12-.02,14.9-8.66,23.1-20.15,23.08-32.35-.02-12.29-8.35-23.86-23.45-32.58-15.64-9.03-36.14-13.54-56.62-13.54h0Z"/><path class="cls-17" d="m335.25,151.11c-23.08,0-46.19-5.08-63.84-15.24-17.23-9.97-26.73-23.24-26.74-37.36,0-14.02,9.35-27.19,26.37-37.08,35.03-20.36,92.22-20.36,127.48,0,17.23,9.95,26.73,23.21,26.75,37.34.02,14.03-9.33,27.2-26.33,37.08-17.51,10.18-40.59,15.27-63.69,15.27h0Zm-.56-103.98c-22.9,0-45.78,5.05-63.16,15.15-16.7,9.7-25.88,22.57-25.87,36.22,0,13.75,9.33,26.71,26.24,36.5,35.03,20.17,91.78,20.17,126.52-.02,16.68-9.69,25.85-22.55,25.83-36.22-.02-13.76-9.34-26.71-26.25-36.47h0c-17.49-10.1-40.42-15.15-63.33-15.15h.02Z"/><path class="cls-17" d="m236.67,253.14c-.09,0-.17-.02-.25-.07l-40.3-23.27c-.24-.14-.32-.44-.18-.68.14-.24.44-.32.68-.18l40.05,23.12,181.56-104.82-19.79-11.4c-.24-.14-.32-.44-.18-.68.14-.24.44-.32.68-.18l20.54,11.83c.16.09.25.25.25.43s-.1.34-.25.43l-182.56,105.4c-.08.04-.16.07-.25.07h0Z"/><g><path class="cls-17" d="m400.13,60.76c1.2.69,1.2,1.81.01,2.5s-3.12.69-4.32,0-1.2-1.81-.01-2.5,3.12-.69,4.32,0Z"/><path class="cls-17" d="m397.99,64.28c-.87,0-1.73-.19-2.41-.59-.74-.43-1.15-1.03-1.15-1.69s.4-1.25,1.14-1.68c1.35-.78,3.46-.78,4.82,0h0c.74.43,1.15,1.03,1.15,1.69s-.4,1.25-1.14,1.68c-.67.39-1.54.59-2.41.59Zm-.02-3.54c-.7,0-1.39.15-1.91.45-.41.24-.64.53-.64.81s.24.58.65.82c1.04.6,2.79.6,3.82,0,.41-.24.64-.53.64-.81s-.24-.58-.65-.82h0c-.52-.3-1.22-.45-1.91-.45Z"/></g><g><path class="cls-17" d="m265.29,89.23c1.2.69,1.2,1.81.01,2.5s-3.12.69-4.32,0-1.2-1.81-.01-2.5,3.12-.69,4.32,0Z"/><path class="cls-17" d="m263.15,92.75c-.87,0-1.73-.2-2.41-.59-.74-.43-1.15-1.03-1.15-1.69s.4-1.25,1.14-1.68c1.35-.78,3.46-.78,4.82,0h0c.74.43,1.15,1.03,1.15,1.69s-.4,1.25-1.14,1.68c-.67.39-1.54.59-2.41.59Zm-.02-3.54c-.7,0-1.39.15-1.91.45-.41.24-.64.53-.64.81s.24.58.65.82c1.04.6,2.79.6,3.82,0,.41-.24.64-.53.64-.81s-.24-.58-.65-.82h0c-.52-.3-1.22-.45-1.91-.45Z"/></g><g><path class="cls-17" d="m420.5,145.98c1.2.69,1.2,1.81.01,2.5s-3.12.69-4.32,0-1.2-1.81-.01-2.5,3.12-.69,4.32,0Z"/><path class="cls-17" d="m418.36,149.51c-.87,0-1.73-.2-2.41-.59-.74-.43-1.15-1.03-1.15-1.69s.4-1.25,1.14-1.68c1.35-.78,3.46-.78,4.82,0h0c.74.43,1.15,1.03,1.15,1.69s-.4,1.25-1.14,1.68c-.67.39-1.54.59-2.41.59Zm-.02-3.54c-.7,0-1.39.15-1.91.45-.41.24-.64.53-.64.81s.24.58.65.82c1.04.6,2.79.6,3.82,0,.41-.24.64-.53.64-.81s-.24-.58-.65-.82h0c-.52-.3-1.22-.45-1.91-.45Z"/></g><g><path class="cls-17" d="m224.24,203.79c1.2.69,1.2,1.81,0,2.5s-3.12.69-4.32,0c-1.2-.69-1.2-1.81,0-2.5s3.12-.69,4.32,0Z"/><path class="cls-17" d="m222.09,207.31c-.87,0-1.73-.2-2.41-.58-.74-.43-1.15-1.03-1.15-1.69s.4-1.25,1.14-1.68c1.35-.78,3.46-.78,4.82,0h0c.74.43,1.15,1.03,1.15,1.69s-.4,1.25-1.14,1.68c-.67.39-1.54.59-2.41.59h0Zm-.02-3.55c-.7,0-1.39.15-1.91.45-.41.24-.64.53-.64.81s.24.59.65.82c1.04.6,2.79.6,3.82,0,.41-.24.64-.53.64-.81s-.24-.58-.65-.82c-.52-.3-1.22-.45-1.91-.45Z"/></g><g><path class="cls-17" d="m196.59,243.37c1.2.69,1.2,1.81,0,2.5s-3.12.69-4.32,0c-1.2-.69-1.2-1.81,0-2.5s3.12-.69,4.32,0Z"/><path class="cls-17" d="m194.45,246.89c-.87,0-1.73-.2-2.41-.58-.74-.43-1.15-1.03-1.15-1.69s.4-1.25,1.14-1.68c1.35-.78,3.46-.79,4.82,0h0c.74.43,1.15,1.03,1.15,1.69s-.4,1.25-1.14,1.68c-.67.39-1.54.59-2.41.59h0Zm-.02-3.55c-.7,0-1.39.15-1.91.45-.41.24-.64.53-.64.81s.24.58.65.82c1.04.6,2.79.6,3.82,0,.41-.24.64-.53.64-.81s-.24-.58-.65-.82c-.52-.3-1.22-.45-1.91-.45Z"/></g><g><path class="cls-17" d="m186.42,249.03c1.2.69,1.2,1.81,0,2.5s-3.12.69-4.32,0c-1.2-.69-1.2-1.81,0-2.5s3.12-.69,4.32,0Z"/><path class="cls-17" d="m184.27,252.56c-.87,0-1.73-.2-2.41-.59-.74-.43-1.15-1.03-1.15-1.69s.4-1.25,1.14-1.68c1.35-.78,3.46-.78,4.82,0h0c.74.43,1.15,1.03,1.15,1.69s-.4,1.25-1.14,1.68c-.67.39-1.54.59-2.41.59Zm-.02-3.54c-.7,0-1.39.15-1.91.45-.41.24-.64.53-.64.81s.24.58.65.82c1.04.6,2.79.6,3.82,0,.41-.24.64-.53.64-.81s-.24-.58-.65-.82c-.52-.3-1.22-.45-1.91-.45Z"/></g><g><path class="cls-17" d="m265.65,189.15c1.2.69,1.2,1.81.01,2.5s-3.12.69-4.32,0-1.2-1.81-.01-2.5,3.12-.69,4.32,0Z"/><path class="cls-17" d="m263.51,192.67c-.87,0-1.73-.2-2.41-.58-.74-.43-1.15-1.03-1.15-1.69s.4-1.25,1.14-1.68c1.35-.78,3.46-.78,4.82,0,.74.43,1.15,1.03,1.15,1.69s-.4,1.25-1.14,1.68c-.67.39-1.54.59-2.41.59h0Zm-.02-3.55c-.7,0-1.39.15-1.91.45-.41.24-.64.53-.64.81s.24.58.65.82c1.04.6,2.79.6,3.82,0,.41-.24.64-.53.64-.81s-.24-.58-.65-.82h0c-.52-.3-1.22-.45-1.91-.45Z"/></g><g><path class="cls-17" d="m322.4,170.31c1.2.69,1.2,1.81.01,2.5s-3.12.69-4.32,0-1.2-1.81-.01-2.5,3.12-.69,4.32,0Z"/><path class="cls-17" d="m320.26,173.83c-.87,0-1.73-.19-2.41-.58-.74-.43-1.15-1.03-1.15-1.69s.4-1.25,1.14-1.68c1.35-.78,3.46-.78,4.82,0,.74.43,1.15,1.03,1.15,1.69s-.4,1.25-1.14,1.68c-.67.39-1.54.59-2.41.59h0Zm-.02-3.55c-.7,0-1.39.15-1.91.45-.41.24-.64.53-.64.81s.24.58.65.82c1.04.6,2.79.6,3.82,0,.41-.24.64-.53.64-.81s-.24-.58-.65-.82h0c-.52-.3-1.22-.45-1.91-.45Z"/></g><g><path class="cls-17" d="m351.16,170.31c1.2.69,1.2,1.81.01,2.5s-3.12.69-4.32,0-1.2-1.81-.01-2.5,3.12-.69,4.32,0Z"/><path class="cls-17" d="m349.02,173.83c-.87,0-1.73-.19-2.41-.58-.74-.43-1.15-1.03-1.15-1.69s.4-1.25,1.14-1.68c1.35-.78,3.46-.78,4.82,0,.74.43,1.15,1.03,1.15,1.69s-.4,1.25-1.14,1.68c-.67.39-1.54.59-2.41.59h0Zm-.02-3.55c-.7,0-1.39.15-1.91.45-.41.24-.64.53-.64.81s.24.58.65.82c1.04.6,2.79.6,3.82,0,.41-.24.64-.53.64-.81s-.24-.58-.65-.82h0c-.52-.3-1.22-.45-1.91-.45Z"/></g><g><path class="cls-17" d="m353.71,190.59c1.2.69,1.2,1.81.01,2.5s-3.12.69-4.32,0-1.2-1.81-.01-2.5,3.12-.69,4.32,0Z"/><path class="cls-17" d="m351.57,194.11c-.87,0-1.73-.2-2.41-.58-.74-.43-1.15-1.03-1.15-1.69s.4-1.25,1.14-1.68c1.35-.78,3.46-.79,4.82,0h0c.74.43,1.15,1.03,1.15,1.69s-.4,1.25-1.14,1.68c-.67.39-1.54.59-2.41.59h0Zm-.02-3.55c-.7,0-1.39.15-1.91.45-.41.24-.64.53-.64.81s.24.58.65.82c1.04.6,2.79.6,3.82,0,.41-.24.64-.53.64-.81s-.24-.58-.65-.82h0c-.52-.3-1.22-.45-1.91-.45Z"/></g><g><path class="cls-17" d="m309.03,146.82c1.2.69,1.2,1.81.01,2.5s-3.12.69-4.32,0-1.2-1.81-.01-2.5,3.12-.69,4.32,0Z"/><path class="cls-17" d="m306.89,150.34c-.87,0-1.73-.2-2.41-.58-.74-.43-1.15-1.03-1.15-1.69s.4-1.25,1.14-1.68c1.35-.78,3.46-.78,4.82,0,.74.43,1.15,1.03,1.15,1.69s-.4,1.25-1.14,1.68c-.67.39-1.54.59-2.41.59h0Zm-.02-3.55c-.7,0-1.39.15-1.91.45-.41.24-.64.53-.64.81s.24.58.65.82c1.04.6,2.79.6,3.82,0,.41-.24.64-.53.64-.81s-.24-.58-.65-.82h0c-.52-.3-1.22-.45-1.91-.45Z"/></g><g><path class="cls-17" d="m309.03,194.63c1.2.69,1.2,1.81.01,2.5s-3.12.69-4.32,0-1.2-1.81-.01-2.5,3.12-.69,4.32,0Z"/><path class="cls-17" d="m306.89,198.15c-.87,0-1.73-.2-2.41-.59-.74-.43-1.15-1.03-1.15-1.69s.4-1.25,1.14-1.68c1.35-.78,3.46-.78,4.82,0h0c.74.43,1.15,1.03,1.15,1.69s-.4,1.25-1.14,1.68c-.67.39-1.54.59-2.41.59Zm-.02-3.54c-.7,0-1.39.15-1.91.45-.41.24-.64.53-.64.81s.24.58.65.82c1.04.6,2.79.6,3.82,0,.41-.24.64-.53.64-.81s-.24-.58-.65-.82h0c-.52-.3-1.22-.45-1.91-.45Z"/></g><g><path class="cls-17" d="m253.81,226.72c1.2.69,1.2,1.81,0,2.5s-3.12.69-4.32,0c-1.2-.69-1.2-1.81,0-2.5s3.12-.69,4.32,0Z"/><path class="cls-17" d="m251.67,230.24c-.87,0-1.73-.2-2.41-.58-.74-.43-1.15-1.03-1.15-1.69s.4-1.25,1.14-1.68c1.35-.78,3.46-.78,4.82,0h0c.74.43,1.15,1.03,1.15,1.69s-.4,1.25-1.14,1.68c-.67.39-1.54.59-2.41.59h0Zm-.02-3.55c-.7,0-1.39.15-1.91.45-.41.24-.64.53-.64.81s.24.58.65.82c1.04.6,2.79.6,3.82,0,.41-.24.64-.53.64-.81s-.24-.58-.65-.82h0c-.52-.3-1.22-.45-1.91-.45Z"/></g><g><path class="cls-17" d="m337.12,210.85c1.2.69,1.2,1.81.01,2.5s-3.12.69-4.32,0-1.2-1.81-.01-2.5,3.12-.69,4.32,0Z"/><path class="cls-17" d="m334.98,214.37c-.87,0-1.73-.2-2.41-.59-.74-.43-1.15-1.03-1.15-1.69s.4-1.25,1.14-1.68c1.35-.78,3.46-.78,4.82,0h0c.74.43,1.15,1.03,1.15,1.69s-.4,1.25-1.14,1.68c-.67.39-1.54.59-2.41.59Zm-.02-3.54c-.7,0-1.39.15-1.91.45-.41.24-.64.53-.64.81s.24.58.65.82c1.04.6,2.79.6,3.82,0,.41-.24.64-.53.64-.81s-.24-.58-.65-.82h0c-.52-.3-1.22-.45-1.91-.45Z"/></g><g><path class="cls-17" d="m411.97,80.58c1.2.69,1.2,1.81.01,2.5s-3.12.69-4.32,0-1.2-1.81-.01-2.5,3.12-.69,4.32,0Z"/><path class="cls-17" d="m409.83,84.1c-.87,0-1.73-.2-2.41-.58-.74-.43-1.15-1.03-1.15-1.69s.4-1.25,1.14-1.68c1.35-.78,3.46-.78,4.82,0h0c.74.43,1.15,1.03,1.15,1.69s-.4,1.25-1.14,1.68c-.67.39-1.54.59-2.41.59h0Zm-.02-3.55c-.7,0-1.39.15-1.91.45-.41.24-.64.53-.64.81s.24.58.65.82c1.04.6,2.79.6,3.82,0,.41-.24.64-.53.64-.81s-.24-.58-.65-.82h0c-.52-.3-1.22-.45-1.91-.45Z"/></g><path class="cls-17" d="m334.97,180.17c-.09,0-.17-.02-.25-.07l-14.04-8.11c-.24-.14-.32-.44-.18-.68.14-.24.44-.32.68-.18l13.79,7.96,14.2-8.2c.15-.09.34-.09.5,0l14.19,8.02c.24.14.33.44.19.68-.14.24-.44.32-.68.19l-13.94-7.88-14.2,8.2c-.08.05-.16.07-.25.07h-.01Z"/><path class="cls-17" d="m306.88,212.6c-.08,0-.17-.02-.25-.07l-14.04-8.11c-.15-.09-.25-.25-.25-.43s.1-.34.25-.43l14.04-8.11c.24-.14.54-.06.68.18.14.24.06.54-.18.68l-13.29,7.68,13.29,7.67c.24.14.32.44.18.68-.09.16-.26.25-.43.25h0Z"/><path class="cls-17" d="m335.46,212.31c-.08,0-.16-.02-.24-.06l-14.53-7.82c-.24-.13-.33-.43-.2-.68.13-.24.43-.33.68-.2l14.53,7.82c.24.13.33.43.2.68-.09.17-.26.26-.44.26Z"/><path class="cls-17" d="m194.54,245.03c-.09,0-.18-.02-.26-.07l-19.87-12.04c-.24-.14-.31-.45-.17-.69s.45-.31.69-.17l19.87,12.04c.24.14.31.45.17.69-.09.16-.26.24-.43.24h0Z"/><path class="cls-17" d="m184.26,250.79c-.09,0-.18-.02-.26-.07l-11.41-6.91c-.24-.14-.31-.45-.17-.69s.45-.31.69-.17l11.41,6.91c.24.14.31.45.17.69-.09.16-.26.24-.43.24h0Z"/><path class="cls-17" d="m258.37,233.12c-.17,0-.34-.09-.43-.25-.14-.24-.06-.55.18-.68l55.74-32.68c.24-.14.54-.06.68.18.14.24.06.54-.18.68l-55.74,32.68c-.08.05-.17.07-.25.07Z"/><path class="cls-17" d="m351.74,192.34c-.17,0-.34-.09-.43-.25-.14-.24-.06-.54.18-.68l55.74-32.68c.24-.14.54-.06.68.18.14.24.06.54-.18.68l-55.74,32.68c-.08.05-.17.07-.25.07Z"/><path class="cls-17" d="m251.57,228.39c-.17,0-.34-.09-.43-.25-.14-.24-.06-.54.18-.68l34.14-20.02c.24-.14.54-.06.68.18.14.24.06.54-.18.68l-34.14,20.02c-.08.05-.17.07-.25.07h0Z"/><g><path class="cls-10" d="m315.58,199.19c.82.48.83,1.25,0,1.72-.82.48-2.15.48-2.98,0-.82-.48-.83-1.25,0-1.72.82-.48,2.15-.48,2.98,0Z"/><path class="cls-17" d="m314.1,201.77c-.62,0-1.25-.14-1.74-.42-.55-.32-.87-.79-.87-1.3s.31-.97.86-1.29c.97-.56,2.5-.56,3.48,0h0c.55.32.87.79.87,1.3s-.31.97-.86,1.29c-.49.28-1.11.42-1.74.42h0Zm-.01-2.44c-.45,0-.9.1-1.23.29-.23.13-.36.29-.36.43s.14.3.37.43c.67.39,1.81.39,2.48,0,.23-.13.36-.29.36-.43s-.14-.3-.37-.43c-.34-.19-.79-.29-1.24-.29h-.01Z"/></g><g><path class="cls-10" d="m408.96,158.29c.82.48.83,1.25,0,1.72-.82.48-2.15.48-2.98,0-.82-.48-.83-1.25,0-1.72.82-.48,2.15-.48,2.98,0Z"/><path class="cls-17" d="m407.48,160.87c-.62,0-1.25-.14-1.74-.42-.55-.32-.87-.79-.87-1.3s.31-.97.86-1.29c.97-.56,2.5-.56,3.48,0,.55.32.87.79.87,1.3s-.31.97-.86,1.29c-.49.28-1.11.42-1.74.42h0Zm-.01-2.44c-.45,0-.9.1-1.23.29-.23.13-.36.29-.36.43s.14.3.37.43c.68.39,1.81.39,2.48,0,.23-.13.36-.29.36-.43s-.14-.3-.37-.43h0c-.34-.19-.79-.29-1.24-.29h-.01Z"/></g><g><path class="cls-10" d="m259.85,231.75c.82.48.83,1.25,0,1.72-.82.48-2.15.48-2.98,0-.82-.48-.83-1.25,0-1.72.82-.48,2.15-.48,2.98,0Z"/><path class="cls-17" d="m258.37,234.33c-.62,0-1.25-.14-1.74-.42-.55-.32-.87-.79-.87-1.3s.31-.97.86-1.29c.97-.57,2.5-.56,3.48,0,.55.32.87.79.87,1.3s-.31.97-.86,1.29c-.49.28-1.11.42-1.74.42h0Zm-.01-2.44c-.45,0-.9.1-1.24.29-.23.13-.36.29-.36.43s.14.3.37.43c.68.39,1.81.39,2.48,0,.23-.13.36-.29.36-.42s-.14-.3-.37-.43c-.34-.19-.79-.29-1.24-.29h0Z"/></g><g><path class="cls-10" d="m287.19,206.63c.82.48.83,1.25,0,1.72-.82.48-2.15.48-2.98,0-.82-.48-.83-1.25,0-1.72.82-.48,2.15-.48,2.98,0Z"/><path class="cls-17" d="m285.71,209.21c-.62,0-1.25-.14-1.74-.42-.55-.32-.87-.79-.87-1.3s.31-.97.86-1.29c.97-.56,2.5-.57,3.48,0,.55.32.87.79.87,1.3s-.31.97-.86,1.29c-.49.28-1.11.42-1.74.42h0Zm-.01-2.44c-.45,0-.9.1-1.23.29-.23.13-.36.29-.36.43s.14.3.37.43c.68.39,1.81.39,2.48,0,.23-.13.36-.29.36-.43s-.14-.3-.37-.43h0c-.34-.19-.79-.29-1.24-.29h-.01Z"/></g><g><path class="cls-10" d="m374.85,62.28c.82.48.83,1.25,0,1.72-.82.48-2.15.48-2.98,0-.82-.48-.83-1.25,0-1.72.82-.48,2.15-.48,2.98,0Z"/><path class="cls-17" d="m373.37,64.86c-.62,0-1.25-.14-1.74-.42-.55-.32-.87-.79-.87-1.3s.31-.97.86-1.29c.97-.56,2.5-.56,3.48,0h0c.55.32.87.79.87,1.3s-.31.97-.86,1.29c-.49.28-1.11.42-1.74.42h0Zm-.01-2.44c-.45,0-.9.1-1.24.29-.23.13-.36.29-.36.43s.14.3.37.43c.67.39,1.81.39,2.48,0,.23-.13.36-.29.36-.43s-.14-.3-.37-.43h0c-.34-.19-.79-.29-1.24-.29h0Z"/></g></g></g><g id="OBJECTS"><g><g><polygon class="cls-51" points="408.13 93.18 408.13 97.79 328.1 144 328.1 139.38 408.13 93.17 408.13 93.18"/><polygon class="cls-18" points="408.13 93.17 328.1 139.38 276.08 109.34 276.13 109.31 356.11 63.14 408.13 93.17"/><path class="cls-26" d="m356.11,58.52c.91,1.58,1.05,4.01,0,4.62l-79.97,46.17c.98-.67.84-3.03-.06-4.59l80.03-46.21h0Z"/><path class="cls-18" d="m356.12,2.3v56.21l-80.05,46.21v-56.21L356.12,2.3Zm-3.01,54.48V7.49l-74.04,42.75v49.3l74.04-42.75h0Z"/><polygon class="cls-42" points="356.12 2.3 276.08 48.51 272.07 46.2 352.1 0 356.12 2.3"/><polygon class="cls-13" points="353.13 7.49 353.11 56.79 279.06 99.54 279.07 50.24 353.13 7.49"/><path class="cls-40" d="m328.1,139.38v4.62l-56.03-32.34v-4.62c.91,1.59,2.95,2.92,4,2.31h0l52.02,30.04h.01Z"/><path class="cls-41" d="m272.07,107.04c-.91-1.58-1.05-4.01,0-4.62h0l4,2.3c.9,1.56,1.04,3.92.06,4.59l-.05.03h0c-1.06.61-3.09-.73-4-2.31h-.01Z"/><polygon class="cls-39" points="276.08 48.51 276.07 104.72 272.07 102.41 272.07 46.2 276.08 48.51"/></g><g class="cls-37"><polygon class="cls-22" points="356.12 67.76 352.11 70.07 356.11 72.38 360.11 70.07 356.12 67.76"/><polygon class="cls-22" points="349.93 71.33 345.92 73.64 349.92 75.95 353.92 73.64 349.93 71.33"/><polygon class="cls-22" points="343.75 74.9 339.74 77.21 343.74 79.52 347.74 77.21 343.75 74.9"/><polygon class="cls-22" points="337.56 78.47 333.55 80.78 337.55 83.09 341.56 80.78 337.56 78.47"/><polygon class="cls-22" points="331.38 82.04 327.37 84.35 331.37 86.66 335.37 84.35 331.38 82.04"/><polygon class="cls-22" points="325.2 85.61 321.18 87.92 325.18 90.23 329.19 87.92 325.2 85.61"/><polygon class="cls-22" points="319.01 89.18 315 91.49 319 93.8 323 91.49 319.01 89.18"/><polygon class="cls-22" points="312.83 92.75 308.81 95.06 312.82 97.37 316.82 95.06 312.83 92.75"/><polygon class="cls-22" points="306.64 96.32 302.63 98.63 306.63 100.94 310.63 98.63 306.64 96.32"/><polygon class="cls-22" points="300.46 99.89 296.44 102.2 300.45 104.51 304.45 102.2 300.46 99.89"/><polygon class="cls-22" points="294.27 103.46 290.26 105.77 294.26 108.09 298.26 105.77 294.27 103.46"/><polygon class="cls-22" points="288.09 107.03 284.08 109.35 288.08 111.66 292.08 109.35 288.09 107.03"/></g><g class="cls-37"><polygon class="cls-22" points="362.12 71.22 358.11 73.53 362.11 75.84 366.11 73.53 362.12 71.22"/><polygon class="cls-22" points="355.94 74.79 351.92 77.1 355.93 79.41 359.93 77.1 355.94 74.79"/><polygon class="cls-22" points="349.75 78.36 345.74 80.67 349.74 82.99 353.74 80.67 349.75 78.36"/><polygon class="cls-22" points="343.57 81.93 339.55 84.25 343.56 86.56 347.56 84.25 343.57 81.93"/><polygon class="cls-22" points="337.38 85.51 333.37 87.82 337.37 90.13 341.37 87.82 337.38 85.51"/><polygon class="cls-22" points="331.2 89.08 327.19 91.39 331.19 93.7 335.19 91.39 331.2 89.08"/><polygon class="cls-22" points="325.01 92.65 321 94.96 325 97.27 329 94.96 325.01 92.65"/><polygon class="cls-22" points="318.83 96.22 314.82 98.53 318.82 100.84 322.82 98.53 318.83 96.22"/><polygon class="cls-22" points="312.64 99.79 308.63 102.1 312.63 104.41 316.64 102.1 312.64 99.79"/><polygon class="cls-22" points="306.46 103.36 302.45 105.67 306.45 107.98 310.45 105.67 306.46 103.36"/><polygon class="cls-22" points="300.28 106.93 296.26 109.24 300.26 111.55 304.27 109.24 300.28 106.93"/><polygon class="cls-22" points="294.09 110.5 290.08 112.81 294.08 115.12 298.08 112.81 294.09 110.5"/></g><g class="cls-37"><polygon class="cls-22" points="368.12 74.69 364.11 77 368.11 79.31 372.11 77 368.12 74.69"/><polygon class="cls-22" points="361.94 78.26 357.93 80.57 361.93 82.88 365.93 80.57 361.94 78.26"/><polygon class="cls-22" points="355.75 81.83 351.74 84.14 355.74 86.45 359.75 84.14 355.75 81.83"/><polygon class="cls-22" points="349.57 85.4 345.56 87.71 349.56 90.02 353.56 87.71 349.57 85.4"/><polygon class="cls-22" points="343.39 88.97 339.37 91.28 343.37 93.59 347.38 91.28 343.39 88.97"/><polygon class="cls-22" points="337.2 92.54 333.19 94.85 337.19 97.16 341.19 94.85 337.2 92.54"/><polygon class="cls-22" points="331.02 96.11 327 98.42 331.01 100.73 335.01 98.42 331.02 96.11"/><polygon class="cls-22" points="324.83 99.68 320.82 101.99 324.82 104.3 328.82 101.99 324.83 99.68"/><polygon class="cls-22" points="318.65 103.25 314.63 105.56 318.64 107.88 322.64 105.56 318.65 103.25"/><polygon class="cls-22" points="312.46 106.82 308.45 109.14 312.45 111.45 316.45 109.14 312.46 106.82"/><polygon class="cls-22" points="306.28 110.4 302.27 112.71 306.27 115.02 310.27 112.71 306.28 110.4"/><polygon class="cls-22" points="300.09 113.97 296.08 116.28 300.08 118.59 304.08 116.28 300.09 113.97"/></g><g class="cls-37"><polygon class="cls-22" points="374.13 78.15 370.11 80.47 374.12 82.78 378.12 80.47 374.13 78.15"/><polygon class="cls-22" points="367.94 81.72 363.93 84.04 367.93 86.35 371.93 84.04 367.94 81.72"/><polygon class="cls-22" points="361.76 85.3 357.74 87.61 361.75 89.92 365.75 87.61 361.76 85.3"/><polygon class="cls-22" points="355.57 88.87 320.64 109.03 324.64 111.34 359.56 91.18 355.57 88.87"/><polygon class="cls-22" points="318.47 110.29 314.45 112.6 318.45 114.91 322.46 112.6 318.47 110.29"/><polygon class="cls-22" points="312.28 113.86 308.27 116.17 312.27 118.48 316.27 116.17 312.28 113.86"/><polygon class="cls-22" points="306.1 117.43 302.08 119.74 306.09 122.05 310.09 119.74 306.1 117.43"/></g><polygon class="cls-6" points="333.56 110.18 357.56 96.32 369.56 103.25 345.55 117.12 333.56 110.18"/><polygon class="cls-6" points="362.11 110.5 372.11 104.72 376.12 107.03 366.11 112.81 362.11 110.5"/><polygon class="cls-6" points="348.1 118.59 358.11 112.81 362.11 115.12 352.11 120.9 348.1 118.59"/><g><polygon class="cls-13" points="314.82 45.66 314.88 66.32 332.85 55.94 332.8 35.28 314.82 45.66"/><g><polygon class="cls-13" points="297.65 63.34 297.65 64.16 310.69 56.63 310.69 55.81 297.65 63.34"/><polygon class="cls-13" points="297.64 60.76 297.65 61.58 310.68 54.05 310.68 53.23 297.64 60.76"/><polygon class="cls-13" points="297.64 58.17 297.64 58.99 310.68 51.47 310.67 50.64 297.64 58.17"/><polygon class="cls-13" points="297.63 55.58 297.63 56.4 310.67 48.88 310.67 48.06 297.63 55.58"/></g><polygon class="cls-13" points="297.67 68.51 297.67 69.33 310.71 61.81 310.7 60.99 297.67 68.51"/><polygon class="cls-13" points="297.66 65.93 297.66 66.75 310.7 59.22 310.7 58.4 297.66 65.93"/><polygon class="cls-13" points="300.98 69.19 300.98 70.01 310.71 64.39 310.71 63.57 300.98 69.19"/><g><path class="cls-38" d="m330.26,28.37c-.34.2-.62.68-.62,1.07s.28.55.62.36c.35-.2.62-.68.62-1.08s-.28-.55-.63-.35h.01Z"/><path class="cls-32" d="m335.93,23.96c.66-.38,1.19-.08,1.2.68l.02,5.62c0-.7-.49-.97-1.09-.63l-41.39,23.9c-.6.35-1.09,1.19-1.09,1.88l-.02-5.62c0-.76.53-1.68,1.19-2.06l41.19-23.78h-.01Zm-3.15,4.4c.35-.2.62-.68.62-1.08s-.28-.55-.63-.35c-.34.2-.62.68-.62,1.07s.28.55.62.36m-2.51,1.45c.35-.2.62-.68.62-1.08s-.28-.55-.63-.35c-.34.2-.62.68-.62,1.07s.28.55.62.36m5.02-2.9c.35-.2.62-.68.62-1.07s-.28-.56-.62-.36c-.34.2-.62.68-.62,1.07s.28.55.62.36"/><path class="cls-35" d="m336.05,29.63c.6-.35,1.09-.07,1.09.63l.08,27.04c0,.69-.48,1.54-1.09,1.88l-41.39,23.9c-.6.35-1.09.06-1.09-.63l-.08-27.04c0-.7.48-1.54,1.09-1.88,0,0,41.39-23.9,41.39-23.9Zm-21.17,36.68l17.98-10.38-.06-20.66-17.98,10.38.06,20.66m-17.22.43l13.04-7.53v-.82l-13.04,7.53v.82m-.02-7.76l13.04-7.53v-.82l-13.04,7.53v.82m0,2.58l13.04-7.53v-.82l-13.04,7.53v.82m-.01-5.17l13.04-7.53v-.82l-13.04,7.53v.82m.04,12.93l13.04-7.53v-.82l-13.04,7.53v.82m-.01-5.17l13.04-7.53v-.82l-13.04,7.53v.82m3.33,5.85l9.73-5.62v-.82l-9.74,5.62v.82"/></g><path class="cls-16" d="m335.28,25.47c-.34.2-.62.68-.62,1.07s.28.55.62.36c.35-.2.62-.68.62-1.07s-.28-.56-.62-.36Z"/><path class="cls-29" d="m332.77,26.92c-.34.2-.62.68-.62,1.07s.28.55.62.36c.35-.2.62-.68.62-1.08s-.28-.55-.63-.35h.01Z"/></g></g><polyline class="cls-8" points="78.02 171.6 97.61 182.47 134.94 160.4 116.7 149.47"/><g><g><polygon points="52.55 184.9 129.13 140.7 222.19 194.39 145.56 238.59 52.55 184.9"/><polygon class="cls-11" points="52.55 181.88 129.13 137.68 222.19 191.36 145.56 235.56 52.55 181.88"/><polygon points="52.55 181.88 52.55 184.9 54.4 185.53 55.91 183.81 52.55 181.88"/><polyline points="222.19 191.36 222.19 194.39 219.01 195.36 219.01 193.2"/></g><polyline class="cls-8" points="73.56 174.15 107.26 193.58 154.2 166.09 120.96 147.03"/><polyline class="cls-8" points="75.35 173.37 105.89 191.12 149.63 165.48 119.56 147.83"/><polyline class="cls-8" points="76.12 172.69 105.29 189.65 147.44 165.19 118.95 148.18"/><polyline class="cls-8" points="76.87 172.32 99.58 185.09 140.2 161.82 117.9 148.86"/><polygon class="cls-7" points="59.68 182.09 129.25 142.29 215.22 191.36 146.07 231.82 59.68 182.09"/><g><g><rect class="cls-9" x="92.86" y="171.78" width="1.94" height="1.03" rx=".51" ry=".51" transform="translate(-91.49 107.91) rotate(-42.27)"/><rect class="cls-9" x="94.64" y="172.86" width="1.94" height="1.03" rx=".51" ry=".51" transform="translate(-91.75 109.39) rotate(-42.27)"/><rect class="cls-9" x="96.65" y="173.86" width="1.94" height="1.03" rx=".51" ry=".51" transform="translate(-91.9 111) rotate(-42.27)"/><rect class="cls-9" x="98.57" y="174.89" width="1.94" height="1.03" rx=".51" ry=".51" transform="translate(-92.1 112.56) rotate(-42.27)"/><rect class="cls-9" x="100.49" y="175.93" width="1.94" height="1.03" rx=".51" ry=".51" transform="translate(-92.3 114.12) rotate(-42.27)"/><rect class="cls-9" x="102.41" y="176.96" width="1.94" height="1.03" rx=".51" ry=".51" transform="translate(-92.5 115.68) rotate(-42.27)"/><rect class="cls-9" x="104.33" y="177.99" width="1.94" height="1.03" rx=".51" ry=".51" transform="translate(-92.69 117.24) rotate(-42.27)"/><rect class="cls-9" x="106.25" y="179.03" width="1.94" height="1.03" rx=".51" ry=".51" transform="translate(-92.89 118.8) rotate(-42.27)"/><rect class="cls-9" x="108.08" y="180.46" width="1.94" height="1.03" rx=".51" ry=".51" transform="translate(-93.37 120.41) rotate(-42.27)"/><rect class="cls-9" x="110.05" y="181.59" width="1.94" height="1.03" rx=".51" ry=".51" transform="translate(-93.62 122.02) rotate(-42.27)"/><rect class="cls-9" x="111.9" y="182.56" width="1.94" height="1.03" rx=".51" ry=".51" transform="translate(-93.79 123.52) rotate(-42.27)"/><rect class="cls-9" x="113.81" y="183.76" width="1.94" height="1.03" rx=".51" ry=".51" transform="translate(-94.1 125.12) rotate(-42.27)"/><rect class="cls-9" x="115.67" y="184.88" width="1.94" height="1.03" rx=".51" ry=".51" transform="translate(-94.38 126.66) rotate(-42.27)"/></g><g><path class="cls-9" d="m121.16,185.99h0c-.19.19-.5.19-.69,0l-.68-.68c-.19-.19-.19-.5,0-.69h0c.19-.19.5-.19.69,0l.68.68c.19.19.19.5,0,.69Z"/><path class="cls-9" d="m123.13,184.95h0c-.19.19-.5.19-.69,0l-.68-.68c-.19-.19-.19-.5,0-.69h0c.19-.19.5-.19.69,0l.68.68c.19.19.19.5,0,.69Z"/><path class="cls-9" d="m125.01,183.83h0c-.19.19-.5.19-.69,0l-.68-.68c-.19-.19-.19-.5,0-.69h0c.19-.19.5-.19.69,0l.68.68c.19.19.19.5,0,.69Z"/><path class="cls-9" d="m126.79,182.67h0c-.19.19-.5.19-.69,0l-.68-.68c-.19-.19-.19-.5,0-.69h0c.19-.19.5-.19.69,0l.68.68c.19.19.19.5,0,.69Z"/><path class="cls-9" d="m128.66,181.55h0c-.19.19-.5.19-.69,0l-.68-.68c-.19-.19-.19-.5,0-.69h0c.19-.19.5-.19.69,0l.68.68c.19.19.19.5,0,.69Z"/><path class="cls-9" d="m130.56,180.44h0c-.19.19-.5.19-.69,0l-.68-.68c-.19-.19-.19-.5,0-.69h0c.19-.19.5-.19.69,0l.68.68c.19.19.19.5,0,.69Z"/><path class="cls-9" d="m132.49,179.35h0c-.19.19-.5.19-.69,0l-.68-.68c-.19-.19-.19-.5,0-.69h0c.19-.19.5-.19.69,0l.68.68c.19.19.19.5,0,.69Z"/><path class="cls-9" d="m134.37,178.27h0c-.19.19-.5.19-.69,0l-.68-.68c-.19-.19-.19-.5,0-.69h0c.19-.19.5-.19.69,0l.68.68c.19.19.19.5,0,.69Z"/><path class="cls-9" d="m136.29,177.13h0c-.19.19-.5.19-.69,0l-.68-.68c-.19-.19-.19-.5,0-.69h0c.19-.19.5-.19.69,0l.68.68c.19.19.19.5,0,.69Z"/><path class="cls-9" d="m138.22,176.07h0c-.19.19-.5.19-.69,0l-.68-.68c-.19-.19-.19-.5,0-.69h0c.19-.19.5-.19.69,0l.68.68c.19.19.19.5,0,.69Z"/><path class="cls-9" d="m140.05,175h0c-.19.19-.5.19-.69,0l-.68-.68c-.19-.19-.19-.5,0-.69h0c.19-.19.5-.19.69,0l.68.68c.19.19.19.5,0,.69Z"/><path class="cls-9" d="m141.99,173.86h0c-.19.19-.5.19-.69,0l-.68-.68c-.19-.19-.19-.5,0-.69h0c.19-.19.5-.19.69,0l.68.68c.19.19.19.5,0,.69Z"/><path class="cls-9" d="m143.87,172.7h0c-.19.19-.5.19-.69,0l-.68-.68c-.19-.19-.19-.5,0-.69h0c.19-.19.5-.19.69,0l.68.68c.19.19.19.5,0,.69Z"/></g><g><g><polygon points="92.99 171.6 118.96 156.58 144.97 171.6 118.98 186.62 92.99 171.6"/><polygon class="cls-20" points="92.99 169.82 118.96 154.8 144.97 169.82 118.98 184.84 92.99 169.82"/><polygon class="cls-25" points="92.99 169.39 118.96 154.37 144.97 169.39 118.98 184.41 92.99 169.39"/><polygon class="cls-13" points="92.99 169.82 92.99 169.39 93.35 169.6 92.99 169.82"/><polygon class="cls-13" points="144.97 169.39 144.97 169.82 144.65 170 144.6 169.61 144.97 169.39"/><polygon points="92.99 169.82 92.99 171.6 94.52 170.71 92.99 169.82"/><polygon points="144.97 169.82 144.97 171.6 143.43 170.71 144.97 169.82"/></g><g><path class="cls-21" d="m135.12,170.1l-14.84,9.05c-.64.39-1.43.4-2.08.02l-15.39-8.9c-.18-.11-.18-.37,0-.48l16.26-9.39,16.05,9.29c.16.09.16.32,0,.41h0Z"/><polygon class="cls-21" points="135.29 168.51 135.22 169.95 134.15 169.27 135.29 168.51"/><polygon class="cls-21" points="102.7 168.64 102.67 170.04 103.72 169.38 102.7 168.64"/><path class="cls-13" d="m135.2,168.63l-15.31,9.33c-.4.24-.9.25-1.31.02l-15.73-9.09c-.21-.12-.21-.42,0-.54l15.58-9c.39-.22.86-.22,1.25,0l15.51,8.97c.12.07.12.24,0,.31h0Z"/></g></g></g><polyline class="cls-5" points="67.52 186.57 80.84 186.57 103.58 199.55 165.89 163.2"/></g><path class="cls-19" d="m70.23,182.41c-.13-.02-.27-.04-.41-.04h0c-.36,0-.72.1-1.04.29l-1.77.91,1.66,1.17,2.17-1.13h0c.13-.09.22-.19.27-.29.03-.06.05-.12.05-.19,0-.33-.38-.62-.92-.72h-.01Z"/><path class="cls-19" d="m67.28,180.49c-.13-.02-.27-.04-.41-.04h0c-.36,0-.72.1-1.04.29l-1.77.91,1.66,1.17,2.17-1.13h0c.13-.09.22-.19.27-.29.03-.06.05-.12.05-.19,0-.33-.38-.62-.92-.72h-.01Z"/><g><path class="cls-13" d="m66.9,184.33c0,.06.01.11.04.17.07.16.24.29.48.38.18.07.4.11.63.11.12,0,.24,0,.36-.03.1-.02.19-.04.27-.08.23-.09.41-.22.48-.37.03-.05.04-.11.04-.16,0-.29-.33-.53-.79-.62-.11-.02-.23-.03-.35-.03-.63,0-1.15.29-1.15.65v-.02Z"/><g><g><path class="cls-3" d="m66.98,181.45v2.86c.06.3.51.54,1.06.54.12,0,.23,0,.33-.03.39-.07.68-.27.73-.51v-2.86h-2.14.02Z"/><path class="cls-33" d="m66.98,181.45c0,.05.01.11.04.16.07.15.23.27.45.35.17.06.37.1.59.1.12,0,.23,0,.33-.03.09-.02.18-.04.25-.07.22-.08.38-.2.45-.35.02-.05.04-.1.04-.15,0-.27-.31-.5-.74-.58-.1-.02-.22-.03-.33-.03-.59,0-1.07.27-1.07.6h0Z"/></g><g><path class="cls-47" d="m66.83,180.37v3.26c.06.35.58.61,1.21.61.13,0,.26,0,.38-.03.44-.08.78-.3.83-.58v-3.26h-2.44.02Z"/><path class="cls-28" d="m66.83,180.37c0,.06.01.12.04.18.07.17.26.31.51.4.19.07.42.11.67.11.13,0,.26,0,.38-.03.1-.02.2-.05.29-.08.25-.09.43-.23.51-.4.03-.06.04-.11.04-.18,0-.31-.35-.57-.84-.66-.12-.02-.25-.03-.38-.03-.67,0-1.22.31-1.22.69Z"/></g></g></g><g><path class="cls-13" d="m63.95,182.42c0,.06,0,.11.04.17.07.16.24.29.48.38.18.07.4.11.63.11.12,0,.24,0,.36-.03.1-.02.19-.04.27-.08.23-.09.41-.22.48-.37.03-.05.04-.11.04-.16,0-.29-.33-.53-.79-.62-.11-.02-.23-.03-.35-.03-.63,0-1.15.29-1.15.65v-.02Z"/><g><g><path class="cls-45" d="m64.03,179.54v2.86c.06.3.51.54,1.06.54.12,0,.23,0,.33-.03.39-.07.68-.27.73-.51v-2.86h-2.14.02Z"/><path class="cls-33" d="m64.03,179.54c0,.05.01.11.04.16.07.15.23.27.45.35.17.06.37.1.59.1.12,0,.23,0,.33-.03.09-.02.18-.04.25-.07.22-.08.38-.2.45-.35.02-.05.04-.1.04-.15,0-.27-.31-.5-.74-.58-.1-.02-.22-.03-.33-.03-.59,0-1.07.27-1.07.6h0Z"/></g><g><path class="cls-46" d="m63.88,178.46v3.26c.06.35.58.61,1.21.61.13,0,.26,0,.38-.03.44-.08.78-.3.83-.58v-3.26h-2.44.02Z"/><path class="cls-28" d="m63.88,178.46c0,.06,0,.12.04.18.08.17.26.31.51.4.19.07.42.11.67.11.13,0,.26,0,.38-.03.1-.02.2-.05.29-.08.25-.09.43-.23.51-.4.03-.06.04-.11.04-.18,0-.31-.35-.57-.84-.66-.12-.02-.25-.03-.38-.03-.67,0-1.22.31-1.22.69Z"/></g></g></g><path class="cls-19" d="m134.41,145.2c-.13-.02-.27-.04-.41-.04h0c-.36,0-.72.1-1.04.29l-1.77.91,1.66,1.17,2.17-1.13h0c.13-.09.22-.19.27-.29.03-.06.05-.12.05-.19,0-.33-.38-.62-.92-.72h-.01Z"/><path class="cls-19" d="m131.46,143.28c-.13-.02-.27-.04-.41-.04h0c-.36,0-.72.1-1.04.29l-1.77.91,1.66,1.17,2.17-1.13h0c.13-.09.22-.19.27-.29.03-.06.05-.12.05-.19,0-.33-.38-.62-.92-.72h-.01Z"/><g><path class="cls-13" d="m131.08,147.11c0,.06,0,.11.04.17.07.16.24.29.48.38.18.07.4.11.63.11.12,0,.24,0,.36-.03.1-.02.19-.04.27-.08.23-.09.41-.22.48-.37.03-.05.04-.11.04-.16,0-.29-.33-.53-.79-.62-.11-.02-.23-.03-.35-.03-.63,0-1.15.29-1.15.65v-.02Z"/><g><g><path class="cls-50" d="m131.15,144.23v2.86c.06.3.51.54,1.06.54.12,0,.23,0,.33-.03.39-.07.68-.27.73-.51v-2.86h-2.14.02Z"/><path class="cls-33" d="m131.15,144.23c0,.05,0,.11.04.16.07.15.23.27.45.35.17.06.37.1.59.1.12,0,.23,0,.33-.03.09-.02.18-.04.25-.07.22-.08.38-.2.45-.35.02-.05.04-.1.04-.15,0-.27-.31-.5-.74-.58-.1-.02-.22-.03-.33-.03-.59,0-1.07.27-1.07.6h0Z"/></g><g><path class="cls-48" d="m131,143.15v3.26c.06.35.58.61,1.21.61.13,0,.26,0,.38-.03.44-.08.78-.3.83-.58v-3.26h-2.44.02Z"/><path class="cls-28" d="m131,143.15c0,.06,0,.12.04.18.07.17.26.31.51.4.19.07.42.11.67.11.13,0,.26,0,.38-.03.1-.02.2-.05.29-.08.25-.09.43-.23.51-.4.03-.06.04-.11.04-.18,0-.31-.35-.57-.84-.66-.12-.02-.25-.03-.38-.03-.67,0-1.22.31-1.22.69h0Z"/></g></g></g><g><path class="cls-13" d="m128.13,145.21c0,.06,0,.11.04.17.07.16.24.29.48.38.18.07.4.11.63.11.12,0,.24,0,.36-.03.1-.02.19-.04.27-.08.23-.09.41-.22.48-.37.03-.05.04-.11.04-.16,0-.29-.33-.53-.79-.62-.11-.02-.23-.03-.35-.03-.63,0-1.15.29-1.15.65v-.02Z"/><g><g><path class="cls-49" d="m128.2,142.32v2.86c.06.3.51.54,1.06.54.12,0,.23,0,.33-.03.39-.07.68-.27.73-.51v-2.86h-2.14.02Z"/><path class="cls-33" d="m128.2,142.32c0,.05,0,.11.04.16.07.15.23.27.45.35.17.06.37.1.59.1.12,0,.23,0,.33-.03.09-.02.18-.04.25-.07.22-.08.38-.2.45-.35.02-.05.04-.1.04-.15,0-.27-.31-.5-.74-.58-.1-.02-.22-.03-.33-.03-.59,0-1.07.27-1.07.6h0Z"/></g><g><path class="cls-43" d="m128.06,141.25v3.26c.06.35.58.61,1.21.61.13,0,.26,0,.38-.03.44-.08.78-.3.83-.58v-3.26h-2.44.02Z"/><path class="cls-28" d="m128.06,141.25c0,.06,0,.12.04.18.08.17.26.31.51.4.19.07.42.11.67.11.13,0,.26,0,.38-.03.1-.02.2-.05.29-.08.25-.09.43-.23.51-.4.03-.06.04-.11.04-.18,0-.31-.35-.57-.84-.66-.12-.02-.25-.03-.38-.03-.67,0-1.22.31-1.22.69h0Z"/></g></g></g><g><path class="cls-9" d="m126.41,200.13c0,.06.01.12.04.18.07.17.26.31.51.4.19.07.42.11.67.11.13,0,.26,0,.38-.03.1-.02.2-.05.29-.08.25-.09.43-.23.51-.4.03-.06.04-.11.04-.18,0-.31-.35-.56-.84-.66-.12-.02-.25-.03-.38-.03-.67,0-1.22.31-1.22.69Z"/><path class="cls-9" d="m123.58,198.75c0,.06.01.12.04.18.07.17.26.31.51.4.19.07.42.11.67.11.13,0,.26,0,.38-.03.1-.02.2-.05.29-.08.25-.09.43-.23.51-.4.03-.06.04-.11.04-.17,0-.31-.35-.56-.84-.66-.12-.02-.25-.03-.38-.03-.67,0-1.22.31-1.22.69h0Z"/><path class="cls-9" d="m120.83,197.09c0,.06.01.12.04.18.07.17.26.31.51.4.19.07.42.11.67.11.13,0,.26,0,.38-.03.1-.02.2-.05.29-.08.25-.09.43-.23.51-.4.03-.06.04-.11.04-.17,0-.31-.35-.56-.84-.66-.12-.02-.25-.03-.38-.03-.67,0-1.22.31-1.22.69h0Z"/><g><polygon class="cls-30" points="120.27 203.08 125.23 200.16 117.1 195.45 112.13 198.37 120.27 203.08"/><polygon class="cls-27" points="112.13 198.37 112.13 200.94 120.27 205.64 120.27 203.08 112.13 198.37"/><polygon class="cls-23" points="125.23 200.16 125.23 202.72 120.27 205.64 120.27 203.08 125.23 200.16"/></g><path class="cls-9" d="m116.49,205.84c0,.06.01.12.04.18.07.17.26.31.51.4.19.07.42.11.67.11.13,0,.26,0,.38-.03.1-.02.2-.05.29-.08.25-.09.43-.23.51-.4.03-.06.04-.11.04-.18,0-.31-.35-.56-.84-.66-.12-.02-.25-.03-.38-.03-.67,0-1.22.31-1.22.69Z"/><path class="cls-9" d="m113.66,204.46c0,.06.01.12.04.18.07.17.26.31.51.4.19.07.42.11.67.11.13,0,.26,0,.38-.03.1-.02.2-.05.29-.08.25-.09.43-.23.51-.4.03-.06.04-.11.04-.17,0-.31-.35-.56-.84-.66-.12-.02-.25-.03-.38-.03-.67,0-1.22.31-1.22.69h0Z"/><path class="cls-9" d="m110.91,202.8c0,.06.01.12.04.18.07.17.26.31.51.4.19.07.42.11.67.11.13,0,.26,0,.38-.03.1-.02.2-.05.29-.08.25-.09.43-.23.51-.4.03-.06.04-.11.04-.18,0-.31-.35-.56-.84-.66-.12-.02-.25-.03-.38-.03-.67,0-1.22.31-1.22.69Z"/></g><line class="cls-4" x1="155.01" y1="169.64" x2="158.61" y2="171.68"/><line class="cls-5" x1="122.61" y1="198.64" x2="137.37" y2="190.07"/><line class="cls-5" x1="144.36" y1="185.99" x2="159.23" y2="177.46"/><g><path class="cls-9" d="m148.28,187.49c0,.06,0,.12.04.18.07.17.26.31.51.4.19.07.42.11.67.11.13,0,.26,0,.38-.03.1-.02.2-.05.29-.08.25-.09.43-.23.51-.4.03-.06.04-.11.04-.18,0-.31-.35-.56-.84-.66-.12-.02-.25-.03-.38-.03-.67,0-1.22.31-1.22.69h0Z"/><path class="cls-9" d="m145.45,186.11c0,.06,0,.12.04.18.07.17.26.31.51.4.19.07.42.11.67.11.13,0,.26,0,.38-.03.1-.02.2-.05.29-.08.25-.09.43-.23.51-.4.03-.06.04-.11.04-.17,0-.31-.35-.56-.84-.66-.12-.02-.25-.03-.38-.03-.67,0-1.22.31-1.22.69h0Z"/><path class="cls-9" d="m142.7,184.45c0,.06,0,.12.04.18.07.17.26.31.51.4.19.07.42.11.67.11.13,0,.26,0,.38-.03.1-.02.2-.05.29-.08.25-.09.43-.23.51-.4.03-.06.04-.11.04-.17,0-.31-.35-.56-.84-.66-.12-.02-.25-.03-.38-.03-.67,0-1.22.31-1.22.69h0Z"/><g><polygon class="cls-30" points="142.14 190.43 147.1 187.51 138.97 182.81 134 185.73 142.14 190.43"/><polygon class="cls-27" points="134 185.73 134 188.29 142.14 193 142.14 190.43 134 185.73"/><polygon class="cls-23" points="147.1 187.51 147.1 190.08 142.14 193 142.14 190.43 147.1 187.51"/></g><path class="cls-9" d="m138.37,193.2c0,.06,0,.12.04.18.07.17.26.31.51.4.19.07.42.11.67.11.13,0,.26,0,.38-.03.1-.02.2-.05.29-.08.25-.09.43-.23.51-.4.03-.06.04-.11.04-.18,0-.31-.35-.56-.84-.66-.12-.02-.25-.03-.38-.03-.67,0-1.22.31-1.22.69h0Z"/><path class="cls-9" d="m135.53,191.82c0,.06,0,.12.04.18.07.17.26.31.51.4.19.07.42.11.67.11.13,0,.26,0,.38-.03.1-.02.2-.05.29-.08.25-.09.43-.23.51-.4.03-.06.04-.11.04-.17,0-.31-.35-.56-.84-.66-.12-.02-.25-.03-.38-.03-.67,0-1.22.31-1.22.69h0Z"/><path class="cls-9" d="m132.79,190.15c0,.06,0,.12.04.18.07.17.26.31.51.4.19.07.42.11.67.11.13,0,.26,0,.38-.03.1-.02.2-.05.29-.08.25-.09.43-.23.51-.4.03-.06.04-.11.04-.18,0-.31-.35-.56-.84-.66-.12-.02-.25-.03-.38-.03-.67,0-1.22.31-1.22.69h0Z"/></g><g><path class="cls-9" d="m170.19,174.85c0,.06,0,.12.04.18.07.17.26.31.51.4.19.07.42.11.67.11.13,0,.26,0,.38-.03.1-.02.2-.05.29-.08.25-.09.43-.23.51-.4.03-.06.04-.11.04-.18,0-.31-.35-.56-.84-.66-.12-.02-.25-.03-.38-.03-.67,0-1.22.31-1.22.69h0Z"/><path class="cls-9" d="m167.36,173.48c0,.06,0,.12.04.18.07.17.26.31.51.4.19.07.42.11.67.11.13,0,.26,0,.38-.03.1-.02.2-.05.29-.08.25-.09.43-.23.51-.4.03-.06.04-.11.04-.17,0-.31-.35-.56-.84-.66-.12-.02-.25-.03-.38-.03-.67,0-1.22.31-1.22.69h0Z"/><path class="cls-9" d="m164.61,171.81c0,.06,0,.12.04.18.07.17.26.31.51.4.19.07.42.11.67.11.13,0,.26,0,.38-.03.1-.02.2-.05.29-.08.25-.09.43-.23.51-.4.03-.06.04-.11.04-.17,0-.31-.35-.56-.84-.66-.12-.02-.25-.03-.38-.03-.67,0-1.22.31-1.22.69h0Z"/><g><polygon class="cls-30" points="164.05 177.8 169.01 174.88 160.88 170.17 155.91 173.1 164.05 177.8"/><polygon class="cls-27" points="155.91 173.1 155.91 175.66 164.05 180.36 164.05 177.8 155.91 173.1"/><polygon class="cls-23" points="169.01 174.88 169.01 177.44 164.05 180.36 164.05 177.8 169.01 174.88"/></g><path class="cls-9" d="m160.27,180.56c0,.06,0,.12.04.18.07.17.26.31.51.4.19.07.42.11.67.11.13,0,.26,0,.38-.03.1-.02.2-.05.29-.08.25-.09.43-.23.51-.4.03-.06.04-.11.04-.18,0-.31-.35-.56-.84-.66-.12-.02-.25-.03-.38-.03-.67,0-1.22.31-1.22.69h0Z"/><path class="cls-9" d="m157.44,179.19c0,.06,0,.12.04.18.07.17.26.31.51.4.19.07.42.11.67.11.13,0,.26,0,.38-.03.1-.02.2-.05.29-.08.25-.09.43-.23.51-.4.03-.06.04-.11.04-.17,0-.31-.35-.56-.84-.66-.12-.02-.25-.03-.38-.03-.67,0-1.22.31-1.22.69h0Z"/><path class="cls-9" d="m154.69,177.52c0,.06,0,.12.04.18.07.17.26.31.51.4.19.07.42.11.67.11.13,0,.26,0,.38-.03.1-.02.2-.05.29-.08.25-.09.43-.23.51-.4.03-.06.04-.11.04-.18,0-.31-.35-.56-.84-.66-.12-.02-.25-.03-.38-.03-.67,0-1.22.31-1.22.69h0Z"/></g><g><g><polygon class="cls-44" points="179.45 179.97 174.67 177.19 174.66 174.55 179.44 177.33 179.45 179.97"/><polygon class="cls-88" points="179.44 177.33 174.66 174.55 176.88 173.27 181.66 176.05 179.44 177.33"/><polygon class="cls-89" points="131.32 207.76 126.54 204.98 174.67 177.19 179.45 179.97 131.32 207.76"/><polygon class="cls-87" points="176.57 180.37 173.97 178.86 129.42 204.58 132.02 206.09 176.57 180.37"/><polygon class="cls-86" points="129.1 206.39 124.32 203.62 126.54 202.34 131.32 205.11 129.1 206.39"/><polygon class="cls-76" points="129.12 213.36 124.34 210.58 124.32 203.62 129.1 206.39 129.12 213.36"/><polygon class="cls-82" points="181.66 176.05 181.68 183.01 129.12 213.36 129.1 206.39 131.32 205.11 131.32 207.76 179.45 179.97 179.44 177.33 181.66 176.05"/></g><g><polygon class="cls-84" points="187.73 184.66 182.95 181.88 182.94 179.24 187.72 182.02 187.73 184.66"/><polygon class="cls-85" points="187.72 182.02 182.94 179.24 185.16 177.96 189.94 180.74 187.72 182.02"/><polygon class="cls-77" points="139.6 212.44 134.82 209.67 182.95 181.88 187.73 184.66 139.6 212.44"/><polygon class="cls-83" points="184.85 185.05 182.25 183.54 137.7 209.27 140.3 210.78 184.85 185.05"/><polygon class="cls-79" points="137.38 211.08 132.6 208.3 134.82 207.02 139.6 209.8 137.38 211.08"/><polygon class="cls-80" points="137.4 218.05 132.62 215.27 132.6 208.3 137.38 211.08 137.4 218.05"/><polygon class="cls-78" points="189.94 180.74 189.96 187.7 137.4 218.05 137.38 211.08 139.6 209.8 139.6 212.44 187.73 184.66 187.72 182.02 189.94 180.74"/></g><g><polygon class="cls-81" points="196.12 189.48 191.34 186.7 191.34 184.06 196.11 186.83 196.12 189.48"/><polygon class="cls-91" points="196.11 186.83 191.34 184.06 193.55 182.78 198.33 185.55 196.11 186.83"/><polygon class="cls-99" points="148 217.26 143.22 214.48 191.34 186.7 196.12 189.48 148 217.26"/><polygon class="cls-92" points="193.25 189.87 190.65 188.36 146.09 214.09 148.69 215.6 193.25 189.87"/><polygon class="cls-90" points="145.77 215.9 140.99 213.12 143.21 211.84 147.99 214.62 145.77 215.9"/><polygon class="cls-100" points="145.79 222.86 141.01 220.09 140.99 213.12 145.77 215.9 145.79 222.86"/><polygon class="cls-101" points="198.33 185.55 198.35 192.52 145.79 222.86 145.77 215.9 147.99 214.62 148 217.26 196.12 189.48 196.11 186.83 198.33 185.55"/></g></g><line class="cls-5" x1="133.08" y1="182.4" x2="136.51" y2="184.32"/><line class="cls-5" x1="111.22" y1="195.18" x2="114.65" y2="197.09"/><line class="cls-7" x1="166.36" y1="173.35" x2="174.78" y2="168.46"/><g><path class="cls-1" d="m44.39,221.61c0,.18.02.37.03.55.11,4.53-3.7,8.42-8,9.84s-8.98.91-13.46.22c-.72-.11-1.46-.22-2.17-.09-.64.12-1.22.44-1.79.75-3,1.65-6.07,3.34-8.33,5.91-.83.94-1.57,2.27-1,3.39.44.86,1.47,1.21,2.42,1.43,3.56.84,7.24,1.04,10.89,1.23,10.81.57,21.65,1.15,32.44.34,5.72-.43,11.46-1.26,16.88-3.14,3.45-1.2,6.97-3.02,8.65-6.25,4.62-8.87-6.02-13.31-12.52-15.31-5.28-1.62-10.56-3.25-15.95-4.44-1.49-.33-3.02-.63-4.52-.37s-2.98,1.17-3.48,2.61c-.37,1.06-.17,2.2-.09,3.33Z"/><path class="cls-18" d="m29.67,106.94s-9.98.91-15.47,8.79c-5.49,7.88-13.26,22.38-13.26,22.38,0,0-3.01,3.83,1.76,7.77l13.37,14.51,5.18-5.08-9.64-13.26s-1.35-3.01.62-5.6l5.49-7.88s1.45-1.45,2.18.83l.1,15.13,27.34-2.07.03-13.96s1.67-.31,2.35,1.17c0,0-.11,7.17,13.09,10.47l7.06,1.37s-.57-3.41,2.28-5.23l-13.88-7.62s-2.05-10.81-2.96-14.91c0,0-.72-4.32-7.93-7.74"/><path class="cls-12" d="m39.93,112.56s-.34,6.8-6.35,3.07c0,0-8.05-7.4-2.11-10.23,0,0,8.18,3.89,8.46,7.16Z"/><path d="m53.05,215.85c.55.23,1.05.58,1.55.92,1.92,1.35,3.79,2.76,5.61,4.24.57.46,4.95,3.55,4.76,4.24-.44,1.58-1.72,2.89-3.28,3.37-2.39.74-4.91-.42-7.14-1.54-1.07-.54-2.14-1.08-3.21-1.61-2.35-1.18-4.71-2.37-6.87-3.87-.7-.49-1.4-1.03-1.88-1.73s-.73-1.63-.46-2.44c.38-1.17,1.66-1.79,2.87-2.05,1.94-.41,3.96-.21,5.93.02.67.08,1.34.16,1.97.4.05.02.1.04.15.06h0Z"/><path d="m18.53,224.66c.3.58.5,1.26.61,2.06.61,4.73.77,9.52.49,14.28-2.67.62-5.54,1.15-8.09.14-.68-.27-1.35-.67-1.77-1.27-.33-.49-.49-1.07-.62-1.64-1.2-5.1-1.3-10.46-.3-15.6,1.55-.29,3.11-.58,4.69-.54,2.37.06,4.11.85,5,2.58h-.01Z"/><path class="cls-22" d="m23.36,108.96c.49.04.97.17,1.4.39,1.26.63,2.15,1.81,2.89,3.01,3.33,5.33,4.69,11.87,3.78,18.09,3.84.52,7.83-.11,11.32-1.8.58-.28,1.16-.6,1.52-1.14.44-.65.45-1.5.45-2.28-.02-4.83-.04-9.65-.06-14.48,0-.05,1.96-2.6,2.18-2.6.5,1.85.5,6.76.51,8.71,0,2.22.03,4.44.04,6.66.03,4.44.05,8.87.08,13.31,0,2.02.02,4.04.27,6.05.24,1.93.7,3.82,1.12,5.71,4.87,21.95,4.57,44.68,4.25,67.16-2.29.59-4.67.8-7.03.61-.61-.05-1.25-.14-1.71-.55-.4-.35-.58-.88-.74-1.39-1.4-4.43-2.25-9.02-2.83-13.63-.5-3.97-.8-7.97-1.39-11.93-.98-6.59-2.76-13.03-4.53-19.46-2.58,8.67-5.17,17.34-7.75,26.01-.95,3.18-1.9,6.37-2.85,9.55-1.87,6.29-3.75,12.58-5.62,18.86-2.33,1.01-5.06,1.04-7.41.09-.44-.18-.89-.4-1.18-.78-.39-.51-.45-1.19-.47-1.83-.43-10.18,1.41-20.44,5.34-29.84.51-1.22,1.06-2.45,1.28-3.75.19-1.16.11-2.34.05-3.51-.72-14.32,1.85-28.58,4.41-42.68,1.99,1.49,5.26.7,6.35-1.54.41-.84.53-1.78.64-2.7.61-4.94,1.23-9.96.47-14.87s-3.1-9.82-7.25-12.56c.61-.7,1.56-.98,2.49-.9h-.02Z"/><path class="cls-15" d="m47.1,97.12s2.65,21.43-8.39,14.8l-8.62-7.73s-1.33-9.72,4.42-10.16c0,0,12.33-.68,12.59,3.09Z"/><path class="cls-31" d="m37.6,99.04v-.04c2.14.32,4.35.14,6.4-.53,1.13-.36,2.28-.93,2.88-1.95.57-.96.56-2.19.22-3.26-1.2-3.78-4.87-6.39-8.73-6.85-2.76-.33-5.63.43-7.87,2.07-.52.38-1.01.81-1.38,1.34-.43.59-.69,1.29-.91,1.98-.74,2.36-.96,4.9-.45,7.32s1.79,4.7,3.7,6.26c-.46-1.33-.68-2.74-.63-4.15.01-.31.04-.64.21-.9.48-.71,1.61-.38,2.25.18s1.24,1.33,2.09,1.38c.67.03,1.28-.43,1.62-1s.46-1.22.58-1.86h.02Z"/><path class="cls-15" d="m71.68,136.61s6.51-1.41,10.85,0c0,0,6.88.62,6.76,2.42,0,0-.23,1.01-7.04.68,0,0,1.58,3.72-.62,5.58,0,0-8.68,1.62-11.75-3.78,0,0-.88-3.48,1.8-4.89h0Z"/><path class="cls-14" d="m19.37,154.58s5.7.98,5.9,3.73-.32,7.88-9.2,2.08c0,0-.49-7.66,2.6-7.52"/></g><path class="cls-19" d="m147.71,226.78c-.13-.02-.27-.04-.41-.04h0c-.36,0-.72.1-1.04.29l-1.77.91,1.66,1.17,2.17-1.13h0c.13-.09.22-.19.27-.29.03-.06.05-.12.05-.19,0-.33-.38-.62-.92-.72h-.01Z"/><g><path class="cls-13" d="m144.37,228.7c0,.06,0,.11.04.17.07.16.24.29.48.38.18.07.4.11.63.11.12,0,.24,0,.36-.03.1-.02.19-.04.27-.08.23-.09.41-.22.48-.37.03-.05.04-.11.04-.16,0-.29-.33-.53-.79-.62-.11-.02-.23-.03-.35-.03-.63,0-1.15.29-1.15.65v-.02Z"/><g><g><path class="cls-103" d="m144.45,225.82v2.86c.06.3.51.54,1.06.54.12,0,.23,0,.33-.03.39-.07.68-.27.73-.51v-2.86h-2.14.02Z"/><path class="cls-33" d="m144.45,225.82c0,.05,0,.11.04.16.07.15.23.27.45.35.17.06.37.1.59.1.12,0,.23,0,.33-.03.09-.02.18-.04.25-.07.22-.08.38-.2.45-.35.02-.05.04-.1.04-.15,0-.27-.31-.5-.74-.58-.1-.02-.22-.03-.33-.03-.59,0-1.07.27-1.07.6h0Z"/></g><g><path class="cls-105" d="m144.3,224.74v3.26c.06.35.58.61,1.21.61.13,0,.26,0,.38-.03.44-.08.78-.3.83-.58v-3.26h-2.44.02Z"/><path class="cls-28" d="m144.3,224.74c0,.06,0,.12.04.18.07.17.26.31.51.4.19.07.42.11.67.11.13,0,.26,0,.38-.03.1-.02.2-.05.29-.08.25-.09.43-.23.51-.4.03-.06.04-.11.04-.18,0-.31-.35-.57-.84-.66-.12-.02-.25-.03-.38-.03-.67,0-1.22.31-1.22.69h0Z"/></g></g></g><path class="cls-19" d="m211.26,189.73c-.13-.02-.27-.04-.41-.04h0c-.36,0-.72.1-1.04.29l-1.77.91,1.66,1.17,2.17-1.13h0c.13-.09.22-.19.27-.29.03-.06.05-.12.05-.19,0-.33-.38-.62-.92-.72h-.01Z"/><g><path class="cls-13" d="m207.93,191.65c0,.06,0,.11.04.17.07.16.24.29.48.38.18.07.4.11.63.11.12,0,.24,0,.36-.03.1-.02.19-.04.27-.08.23-.09.41-.22.48-.37.03-.05.04-.11.04-.16,0-.29-.33-.53-.79-.62-.11-.02-.23-.03-.35-.03-.63,0-1.15.29-1.15.65v-.02Z"/><g><g><path class="cls-104" d="m208,188.77v2.86c.06.3.51.54,1.06.54.12,0,.23,0,.33-.03.39-.07.68-.27.73-.51v-2.86h-2.14.02Z"/><path class="cls-33" d="m208,188.77c0,.05,0,.11.04.16.07.15.23.27.45.35.17.06.37.1.59.1.12,0,.23,0,.33-.03.09-.02.18-.04.25-.07.22-.08.38-.2.45-.35.02-.05.04-.1.04-.15,0-.27-.31-.5-.74-.58-.1-.02-.22-.03-.33-.03-.59,0-1.07.27-1.07.6h0Z"/></g><g><path class="cls-102" d="m207.85,187.69v3.26c.06.35.58.61,1.21.61.13,0,.26,0,.38-.03.44-.08.78-.3.83-.58v-3.26h-2.44.02Z"/><path class="cls-28" d="m207.85,187.69c0,.06,0,.12.04.18.07.17.26.31.51.4.19.07.42.11.67.11.13,0,.26,0,.38-.03.1-.02.2-.05.29-.08.25-.09.43-.23.51-.4.03-.06.04-.11.04-.18,0-.31-.35-.57-.84-.66-.12-.02-.25-.03-.38-.03-.67,0-1.22.31-1.22.69h0Z"/></g></g></g><g><path class="cls-96" d="m100.03,184.38v2.7c0-1.52-1-3.04-3.01-4.2-3.99-2.3-10.44-2.3-14.4,0-1.97,1.14-2.95,2.64-2.96,4.14v-2.7c0-1.5.99-3,2.96-4.14,3.96-2.3,10.41-2.3,14.4,0,2.01,1.16,3.01,2.68,3.01,4.2Z"/><g><path class="cls-94" d="m98.62,183.1v.97c-2.69,1.43-5.51,1.99-6.76,2.18v-.97c1.27-.19,4.08-.75,6.76-2.18Z"/><path class="cls-98" d="m96.64,181.45c.85.49,1.51,1.05,1.98,1.65-2.68,1.43-5.5,1.99-6.76,2.18-.04-.23-.21-.46-.49-.65-.01,0-.02,0-.03-.02-.01,0-.02,0-.03-.02-.01,0-.02,0-.03-.02,0,0-.02,0-.03-.02-.15-.08-.32-.15-.49-.2,2.31-1.59,2.76-3.13,2.75-4.11,1.14.27,2.21.68,3.14,1.21h-.01Z"/></g><g><path class="cls-95" d="m88.4,184.57v.97c-.58-.53-1.19-.96-1.81-1.32-1.46-.85-2.98-1.27-4.11-1.48v-.97c1.14.21,2.66.63,4.12,1.48.62.36,1.23.79,1.8,1.32Z"/><path class="cls-93" d="m88.75,179.85c1.53,1.92,1.58,3.65,1.52,4.4-.09,0-.19-.02-.28-.02-.26,0-.53,0-.78.06h-.03c-.08.02-.17.04-.25.06-.2.06-.37.13-.52.22-.57-.53-1.18-.96-1.8-1.32-1.46-.84-2.98-1.27-4.11-1.48.8-.54,1.79-1.01,2.95-1.35,1.07-.31,2.19-.5,3.31-.57h0Z"/></g><g><path class="cls-24" d="m91.86,187.43v-3.08h-4.05v3.16h0c0,.07,0,.15.02.23.03.13.11.25.2.35.08.09.18.17.3.25.02.02.05.03.08.05.29.17.68.29,1.12.33.22.02.44.02.64,0,.17-.02.34-.04.5-.09.41-.11.76-.29.98-.54.1-.12.16-.23.2-.35.03-.1.03-.2.01-.3h0Z"/><path class="cls-34" d="m91.27,183.52s.02,0,.03.02c.01,0,.02,0,.03.02.01,0,.02,0,.03.02.29.19.45.42.49.65.02.1.02.2-.01.3-.03.12-.1.24-.2.35-.22.25-.57.43-.98.54-.16.04-.33.07-.5.09-.21.02-.42.02-.64,0-.44-.04-.82-.16-1.12-.33-.03,0-.05-.03-.08-.05-.12-.08-.22-.16-.3-.25-.09-.11-.17-.23-.2-.35-.08-.28.02-.55.24-.77.08-.09.19-.17.31-.24.15-.09.32-.16.52-.22.08-.02.16-.04.25-.06h.03c.25-.05.52-.07.78-.06.09,0,.19,0,.28.02.17.02.33.05.49.1.18.05.34.12.49.2.01,0,.02,0,.03.02h.03Z"/></g><g><path class="cls-97" d="m99.46,185.83c-.09.71-.42,1.43-1.01,2.1-.54.62-1.25,1.15-2.09,1.59-1.51-.49-2.71-1.06-3.62-1.59-1.02-.59-1.69-1.13-2.07-1.46.41-.11.76-.29.98-.54.1-.12.16-.23.2-.35,3.34.78,6,.56,7.61.25Z"/><path class="cls-67" d="m99.46,185.83v.97c-.1.71-.43,1.43-1.02,2.1-.54.62-1.25,1.15-2.09,1.59v-.97c.84-.44,1.55-.98,2.1-1.59.59-.68.92-1.39,1.01-2.1Z"/><path class="cls-66" d="m96.36,189.53v.97c-1.52-.49-2.71-1.06-3.63-1.59-1.02-.59-1.69-1.13-2.07-1.46v-.97c.38.33,1.06.87,2.07,1.46.92.53,2.12,1.1,3.62,1.59h0Z"/></g><g><path class="cls-69" d="m88.04,185.94v.97c-3.5.5-5.42,1.59-6.41,2.39v-.97c1-.8,2.92-1.88,6.41-2.39Z"/><path class="cls-68" d="m80.19,186.34v-.97c0,.3.04.6.13.9.21.75.67,1.44,1.32,2.05v.97c-.66-.61-1.12-1.3-1.33-2.05-.09-.3-.13-.61-.13-.9h.01Z"/><path class="cls-72" d="m87.81,185.37v-.62c-1.33-.28-4.04-.71-7.42-.48-.23.64-.26,1.32-.07,2,.21.75.67,1.44,1.32,2.05.99-.8,2.91-1.88,6.4-2.39-.1-.11-.17-.23-.2-.35-.02-.07-.03-.14-.03-.21Z"/></g><g><path class="cls-70" d="m92.13,190.83v.97c-1.21.17-2.48.21-3.78.09-1.18-.11-2.28-.34-3.27-.66v-.97c.99.33,2.09.55,3.27.66,1.29.12,2.57.08,3.77-.09h.01Z"/><path class="cls-71" d="m90.18,186.56c-.24,2.08.95,3.48,1.96,4.27-1.2.17-2.47.2-3.77.09-1.18-.11-2.28-.34-3.27-.66.71-2.07,2.42-3.48,3.24-4.07.03.02.05.03.08.05.29.17.68.29,1.12.33.22.02.44.02.64,0h0Z"/></g><path class="cls-74" d="m98.02,189.07c-4.49,2.61-11.78,2.61-16.29,0-2.27-1.31-3.41-3.03-3.4-4.75v2.7c0,1.72,1.13,3.44,3.4,4.75,4.51,2.61,11.81,2.61,16.29,0,2.23-1.29,3.34-2.99,3.35-4.69v-2.7c0,1.7-1.12,3.39-3.35,4.69Z"/><path class="cls-75" d="m97.97,179.63c4.51,2.61,4.54,6.83.05,9.44s-11.78,2.61-16.29,0-4.54-6.83-.05-9.44,11.78-2.61,16.3,0h0Zm-15.3,8.89c3.99,2.3,10.44,2.3,14.4,0s3.94-6.04-.05-8.34c-3.99-2.3-10.44-2.3-14.4,0s-3.94,6.04.05,8.34"/></g><g><g><polygon class="cls-73" points="205.57 191.66 205.57 195.08 196.41 200.41 196.41 196.98 205.57 191.66"/><polygon class="cls-61" points="196.41 196.98 196.41 200.41 194.54 199.33 194.54 195.9 196.41 196.98"/><polygon class="cls-36" points="196.41 196.98 194.54 195.9 194.54 199.33 194.54 199.33 194.54 196.02 196.41 197.09 205.57 191.77 205.57 191.66 196.41 196.98"/><polygon class="cls-59" points="205.57 191.66 196.41 196.98 194.54 195.9 203.7 190.58 205.57 191.66"/></g><g><polygon class="cls-60" points="194.38 198.16 194.38 201.59 185.22 206.91 185.22 203.49 194.38 198.16"/><polygon class="cls-57" points="185.22 203.49 185.22 206.91 183.35 205.84 183.35 202.41 185.22 203.49"/><polygon class="cls-36" points="185.22 203.49 183.35 202.41 183.35 205.84 183.35 205.84 183.35 202.52 185.22 203.6 194.38 198.28 194.38 198.16 185.22 203.49"/><polygon class="cls-58" points="194.38 198.16 185.22 203.49 183.35 202.41 192.51 197.09 194.38 198.16"/></g><g><polygon class="cls-55" points="183.2 204.66 183.2 208.09 174.04 213.41 174.04 209.98 183.2 204.66"/><polygon class="cls-56" points="174.04 209.98 174.04 213.41 172.17 212.33 172.17 208.9 174.04 209.98"/><polygon class="cls-36" points="174.04 209.98 172.17 208.9 172.17 212.33 172.17 212.33 172.17 209.02 174.04 210.1 183.2 204.78 183.2 204.66 174.04 209.98"/><polygon class="cls-53" points="183.2 204.66 174.04 209.98 172.17 208.9 181.33 203.58 183.2 204.66"/></g><g><polygon class="cls-54" points="172.02 211.15 172.02 214.58 162.87 219.9 162.87 216.48 172.02 211.15"/><polygon class="cls-52" points="162.87 216.48 162.87 219.9 161 218.82 161 215.4 162.87 216.48"/><polygon class="cls-36" points="162.87 216.48 161 215.4 161 218.82 161 218.82 161 215.51 162.87 216.59 172.02 211.27 172.02 211.15 162.87 216.48"/><polygon class="cls-63" points="172.02 211.15 162.87 216.48 161 215.4 170.15 210.07 172.02 211.15"/></g><g><polygon class="cls-65" points="160.85 217.65 160.85 221.08 151.69 226.4 151.69 222.97 160.85 217.65"/><polygon class="cls-64" points="151.69 222.97 151.69 226.4 149.82 225.32 149.82 221.89 151.69 222.97"/><polygon class="cls-36" points="151.69 222.97 149.82 221.89 149.82 225.32 149.82 225.32 149.82 222.01 151.69 223.09 160.85 217.77 160.85 217.65 151.69 222.97"/><polygon class="cls-62" points="160.85 217.65 151.69 222.97 149.82 221.89 158.98 216.57 160.85 217.65"/></g></g></g><g id="Designed_By_Freepik"><path d="m178.94,146.48c.08-.09.14-.19.21-.28.39-.54,1.05-.87,1.71-.88,2.27-.02,2.62,3.07,2.68,4.76.05,1.35-.13,2.7-.37,4.03-.02.13-.05.26-.11.38-.08.16-.21.28-.34.4-.47.43-.96.85-1.51,1.15s-1.2.49-1.83.41-1.24-.44-1.52-1.01c-.24-.49-.2-1.11.09-1.58.05-.07.1-.14.13-.22.03-.09.04-.18.05-.28.16-2.23.32-4.45.48-6.68.14-.02.24-.1.33-.21h0Z"/><path d="m153.29,155.08c.42.51.48,1.59.46,2.19,0,.21-.03.43-.16.61-.13.18-.35.28-.57.35-1.4.5-2.91.61-4.4.68-.28,0-.56.03-.83.1-.32.09-.61.25-.9.41-.87.47-1.77.87-2.69,1.2-.54.2-1.1.37-1.67.44-.23.03-.47.04-.68-.05-.18-.08-.33-.22-.47-.36-.49-.48-.97-.96-1.31-1.56s-.49-1.32-.27-1.96.77-1.1,1.34-1.47c1-.64,2.14-1.07,3.32-1.24.55-.08,1.1-.11,1.65-.13,1.61-.06,3.22-.06,4.82.09.67.06,1.71.12,2.25.58.04.03.08.07.11.11h0Z"/><path class="cls-22" d="m162.21,161.9c-1.3-.33-2.42-1.33-2.88-2.59-.37-1.01-.35-2.11-.31-3.18.15-4.84.3-9.69.45-14.53-3.6-.38-7.2-.75-10.79-1.13,1.29,3.9,2.58,7.8,3.87,11.7.34,1.04.69,2.18.29,3.2-.38.98-1.39,1.61-2.43,1.77s-2.1-.08-3.08-.43c-.45-.16-.91-.35-1.22-.72-.23-.27-.35-.61-.47-.94-1.44-4.01-2.88-8.03-4.32-12.04-.7-1.94-1.36-4.21-.27-5.96.7-1.11,1.95-1.73,3.14-2.29,1.41-.66,2.82-1.32,4.22-1.98.81-.38,1.62-.76,2.48-.98.82-.22,1.67-.29,2.52-.37,6.09-.53,12.18-1.06,18.27-1.59.21-.02.44-.04.64.04,0,0,.03,0,.04.02.3.13.49.42.66.7,1.39,2.25,2.83,4.72,2.54,7.35-.08.77-.32,1.52-.56,2.26-.93,2.88-1.93,5.74-3.01,8.57,2.21-.7,4.42-1.41,6.63-2.11.48-.15,1.3,1.79,1.38,2.1.26.9.2,1.83-.13,2.71-.7,1.87-2.69,2.64-4.36,3.44-1.92.91-3.73,2.05-5.39,3.38-1.18.94-2.28,1.99-3.59,2.75s-2.87,1.22-4.33.85"/><path class="cls-15" d="m150.64,135.13c-.09.17-.11.38-.12.57-.07.86-.13,1.71-.2,2.57-.02.31-.05.62-.18.9-.14.3-.39.52-.62.75-3.3,3.23-4.9,7.76-7.32,11.7-.26.43-.54.86-.94,1.17-.4.32-.89.49-1.36.69-1.18.5-2.28,1.19-3.37,1.87-.16.1-.33.22-.36.4-.05.3.33.51.63.47s.57-.23.87-.28.69.13.67.43c0,.13-.09.24-.16.34-.57.77-1.14,1.55-1.7,2.32-.23.31-.47.66-.41,1.04s.58.67.83.38c-.06.44.55.6.99.59.96-.02,1.97-.06,2.77-.59.42-.28.75-.67,1.06-1.07.95-1.23,1.75-2.58,2.36-4.01.14-.33.28-.67.47-.98.24-.37.56-.68.88-.98,2.15-2.02,4.4-3.94,6.43-6.09,1.01-1.08,1.97-2.21,2.82-3.42.93-1.34,1.41-2.82,2-4.33l.92-2.4c-.87-.89-1.76-1.78-2.87-2.34s-2.48-.73-3.58-.15c-.2.1-.39.24-.5.44h0s-.01,0-.01,0Z"/><path class="cls-18" d="m172.4,129.79s-3.85-9.22-16.25-13.83c0,0-2.24-.92-5.39-.46l-1.02,1.96s2.41.69,1.19,4.09l.42,3.86-.78,9.68s4.41-2.25,6.69,2.86l.68-1.63s4.86,3.71,11.65-1.73c0,0,2.08-1.36,2.8-4.81h.01Z"/><path class="cls-12" d="m150.79,118.01s.81,1.98.49,2.81c0,0-1.11,3.02-3.69,3.65l-1.61-1.12,3.55-5.58,1.27.23h-.01Z"/><path class="cls-15" d="m140.87,127.99c-2.62,5.32-5.24,10.7-6.76,16.43-.11.4-.21.81-.39,1.19-.29.59-.76,1.07-1.23,1.54-.54.54-1.19,1.12-1.95,1.06-.37-.03-1.91.15-2.03.5-.31.9,2.19.36,2.33.56.25.35.28.62,0,.96-.86,1.12-1.72,2.25-2.58,3.37,0,.28.34.45.61.38s.47-.29.65-.5c.7-.82,1.39-1.64,2.09-2.45.24.19.13.58,0,.86-.36.78-.69,1.58-1,2.38-.13.34-.21.82.12.98.39.19.73-.34.86-.76.27-.87.6-1.72.98-2.54.09-.19.3-.4.46-.27-.14,1.05-.29,2.1-.43,3.15-.02.18-.02.41.15.47.12.04.25-.04.35-.13.86-.84.51-2.29.95-3.41.08-.21.37-.42.48-.23.03.05.03.12.03.19-.05.77-.09,1.55-.14,2.32.35.16.76-.15.88-.52s.05-.76.03-1.15c-.05-1.27.52-2.47,1.07-3.61,1.3-2.66,2.6-5.33,4.06-7.91,1.85-3.28,3.95-6.42,5.52-9.84-1.71-1.01-3.41-2.01-5.12-3.02h0Z"/><path class="cls-18" d="m150.93,121.56s-1.3,2.67-3.34,2.91c0,0-4.03-2.6-4.21-2.78s-2.79,5.81-2.79,5.81c0,0,1.9,3.85,5.38,3.5l1.55-3.31,3.26,3.99,1.54-3.99-1.4-6.13h0Z"/><path class="cls-15" d="m148.95,119.16s-2.05,6.96-5.62,4.95c0,0-4.2-2.84-4.4-6.56,0,0,.5-4.17,3.09-3.72,0,0,7.78,2.09,6.94,5.33h-.01Z"/><path d="m150.94,115.51c.03-1.07-.17-2.14-.61-3.11-.97-2.14-3.14-3.71-5.48-3.88s-4.75,1.11-5.84,3.19c-1.08,2.07-.82,4.57-.39,6.87.23.02.35-.27.32-.5s-.12-.47-.02-.67c.21-.44.86-.15,1.34-.09,1.11.13,1.8-1.28,2.89-1.52.96-.21,1.87.58,2.34,1.45s.7,1.87,1.31,2.65c.39-.24-.07-.8-.13-1.26-.06-.48.48-.88.95-.8s.83.5.97.96.11.95.08,1.43c0,.17,1.18-.85,1.29-1.02.33-.55.57-1.43.73-2.05.14-.54.22-1.1.23-1.65h.02Z"/><path class="cls-22" d="m150.8,116.06c.24-.33,4.77.39,5.21.49,1.77.39,3.5,1,5.12,1.81,3.2,1.6,6.65,4.02,8.51,7.12-2.2-.67-4.53-2.27-6.83-3s-4.78-1.05-7.19-.61c-1.2.22-2.41.66-3.22,1.57-.83.93-1.12,2.23-1.07,3.47s.43,2.44.81,3.63c-.8.22-1.54-.54-1.91-1.28-1.48-2.96-.34-6.97,2.49-8.69,1.98-1.21,4.42-1.31,6.73-1.37-2.81-1.13-5.87-1.62-8.9-1.43.08-.56.16-1.12.23-1.68v-.02h.02Z"/></g></g></svg>