<?xml version="1.0" standalone="no"?>
<!DOCTYPE svg PUBLIC "-//W3C//DTD SVG 20010904//EN"
 "http://www.w3.org/TR/2001/REC-SVG-20010904/DTD/svg10.dtd">
<svg version="1.0" xmlns="http://www.w3.org/2000/svg"
 width="400.000000pt" height="400.000000pt" viewBox="0 0 400.000000 400.000000"
 preserveAspectRatio="xMidYMid meet">

<g transform="translate(0.000000,400.000000) scale(0.100000,-0.100000)"
fill="#000000" stroke="none">
<path d="M1920 3385 c-8 -2 -48 -9 -89 -15 -357 -59 -676 -338 -789 -690 -36
-114 -46 -182 -46 -315 0 -180 28 -302 107 -460 131 -265 368 -454 675 -537
116 -31 353 -31 474 0 207 54 332 126 483 277 151 151 223 276 277 483 19 73
22 111 22 242 -1 167 -14 235 -70 377 -122 309 -405 547 -739 619 -66 14 -272
27 -305 19z m217 -507 c21 -27 21 -47 2 -71 -15 -20 -19 -41 -19 -105 l0 -80
35 -21 35 -20 0 79 0 80 30 0 c17 0 39 9 51 21 26 26 59 21 78 -13 14 -24 14
-28 -3 -47 -24 -27 -61 -27 -80 0 -8 12 -22 19 -33 17 -27 -5 -32 -147 -6
-183 17 -23 24 -24 106 -25 l87 0 0 28 c0 15 -9 35 -20 45 -24 20 -26 50 -4
71 18 19 55 21 72 4 17 -17 15 -65 -2 -75 -8 -5 -16 -27 -18 -53 l-3 -45 -91
-3 -91 -3 12 -47 12 -47 73 -3 c63 -3 75 0 92 18 10 11 24 20 31 20 22 0 57
-31 57 -51 0 -23 -34 -59 -55 -59 -8 0 -23 9 -32 20 -15 17 -30 20 -90 20 -78
0 -74 3 -88 -67 l-6 -32 88 -3 88 -3 3 -40 c2 -22 10 -47 18 -57 19 -20 15
-67 -7 -81 -9 -5 -28 -7 -42 -3 -37 9 -46 50 -18 80 11 12 21 34 21 49 l0 27
-86 0 c-112 0 -123 -11 -124 -123 0 -88 14 -106 54 -68 26 25 58 27 80 5 21
-20 20 -43 -1 -66 -21 -24 -60 -23 -75 2 -9 13 -24 20 -45 20 l-33 0 0 80 0
79 -35 -22 -34 -22 -1 -81 c0 -58 4 -85 14 -93 21 -18 25 -48 9 -70 -17 -25
-50 -27 -75 -4 -24 21 -23 45 2 68 17 15 20 31 20 93 0 72 -1 74 -22 68 -13
-3 -30 -6 -38 -6 -13 0 -14 -16 -12 -96 4 -115 -2 -126 -67 -122 l-46 3 -20
62 c-25 77 -46 86 -112 48 -25 -14 -51 -25 -57 -25 -6 0 -40 29 -75 64 l-64
65 31 59 c38 72 32 87 -49 111 l-54 17 0 99 0 99 57 15 c78 20 85 39 45 114
l-32 57 68 68 68 67 57 -31 c75 -40 93 -33 113 44 l15 57 60 0 59 0 -4 -101
c-3 -99 -3 -101 20 -107 56 -15 59 -13 59 66 0 60 -3 75 -20 90 -24 21 -26 44
-3 69 19 21 56 24 70 6z"/>
<path d="M2091 2860 c-19 -11 -9 -45 14 -45 13 0 21 8 23 21 3 23 -17 37 -37
24z"/>
<path d="M1903 2783 c-13 -41 -26 -62 -45 -72 -25 -15 -31 -14 -84 12 l-57 28
-55 -54 -55 -55 27 -47 c14 -26 26 -55 26 -65 0 -30 -33 -58 -85 -73 l-50 -14
0 -79 0 -78 50 -16 c66 -20 72 -25 80 -60 5 -22 0 -41 -21 -75 l-27 -47 57
-56 56 -57 53 29 c51 27 55 28 84 13 24 -13 33 -28 45 -69 14 -51 16 -53 51
-56 l37 -3 0 94 0 95 -37 7 c-129 23 -221 129 -231 266 -4 56 -1 75 20 121 42
92 117 150 221 172 l27 6 0 95 0 95 -34 0 c-33 0 -35 -2 -53 -57z"/>
<path d="M2291 2750 c-19 -11 -9 -45 14 -45 13 0 21 8 23 21 3 23 -17 37 -37
24z"/>
<path d="M2414 2635 c-8 -20 3 -48 18 -43 6 2 16 12 22 21 8 13 7 20 -4 27
-21 14 -30 12 -36 -5z"/>
<path d="M1895 2597 c-97 -47 -147 -126 -148 -232 -1 -103 63 -201 158 -241
87 -36 211 -11 283 58 62 61 90 194 58 273 -43 101 -120 156 -230 162 -60 3
-79 0 -121 -20z m149 -83 c19 -18 21 -55 4 -72 -16 -16 -53 -15 -71 2 -8 8
-36 16 -63 18 -61 4 -64 22 -5 26 25 2 56 12 69 23 30 23 46 24 66 3z m124
-116 c21 -21 15 -67 -12 -79 -25 -12 -66 2 -66 21 0 6 -23 10 -51 10 -65 0
-63 24 3 28 26 2 52 10 58 18 15 17 52 18 68 2z m-80 -151 c6 -46 -53 -68 -84
-31 -5 7 -30 14 -55 16 -59 4 -56 22 4 26 26 2 47 7 47 13 0 5 10 14 23 18 29
12 61 -8 65 -42z"/>
<path d="M1990 2481 c0 -27 19 -36 37 -18 18 18 9 37 -18 37 -12 0 -19 -7 -19
-19z"/>
<path d="M2120 2380 c-18 -11 -4 -40 20 -40 13 0 20 7 20 19 0 22 -21 33 -40
21z"/>
<path d="M2024 2255 c-7 -18 3 -35 21 -35 15 0 28 27 19 41 -8 14 -34 11 -40
-6z"/>
<path d="M2464 2375 c-8 -20 4 -35 27 -35 14 0 19 7 19 25 0 18 -5 25 -20 25
-11 0 -23 -7 -26 -15z"/>
<path d="M2414 2126 c-7 -18 1 -46 13 -46 4 0 15 5 23 10 11 7 12 14 4 27 -15
24 -33 28 -40 9z"/>
<path d="M2287 2024 c-4 -4 -7 -16 -7 -26 0 -13 7 -18 26 -18 21 0 25 4 22 22
-3 23 -27 35 -41 22z"/>
<path d="M2087 1913 c-10 -9 -8 -41 2 -47 16 -10 41 5 41 24 0 10 -7 21 -16
24 -19 7 -19 7 -27 -1z"/>
<path d="M2942 987 c-86 -32 -141 -111 -142 -203 0 -79 9 -110 47 -154 71 -82
165 -102 260 -55 72 36 104 89 111 177 6 88 -15 145 -71 193 -61 53 -134 67
-205 42z m153 -67 c38 -36 57 -86 56 -150 0 -102 -56 -170 -137 -170 -81 0
-130 46 -147 138 -14 73 31 179 87 203 37 16 114 4 141 -21z"/>
<path d="M310 979 c0 -5 14 -15 30 -20 l30 -11 0 -174 0 -175 -30 -10 c-17 -6
-30 -17 -30 -25 0 -12 17 -14 87 -12 92 3 117 18 63 36 l-30 11 0 81 0 81 108
-3 107 -3 3 -76 3 -76 -31 -13 c-16 -7 -30 -19 -30 -27 0 -11 17 -13 87 -11
92 3 117 18 63 36 l-30 11 0 175 0 174 30 11 c56 19 33 31 -60 31 -95 0 -110
-9 -60 -35 30 -16 31 -17 28 -83 l-3 -67 -107 -3 -108 -3 0 75 c0 73 0 74 30
85 56 19 33 31 -60 31 -56 0 -90 -4 -90 -11z"/>
<path d="M920 799 c-62 -160 -79 -195 -102 -208 -51 -29 -35 -41 52 -41 86 0
103 12 58 42 l-22 15 21 49 22 49 83 3 83 3 22 -56 22 -56 -25 -9 c-13 -5 -24
-17 -24 -25 0 -13 13 -15 82 -13 87 3 109 17 59 38 -25 10 -37 29 -81 138
-117 285 -101 257 -140 260 l-35 3 -75 -192z m143 48 c15 -41 27 -79 27 -85 0
-8 -21 -12 -60 -12 -33 0 -60 3 -60 7 0 14 55 163 60 163 3 0 18 -33 33 -73z"/>
<path d="M1300 976 c0 -8 11 -17 25 -20 l25 -6 0 -175 0 -175 -25 -10 c-14 -5
-25 -16 -25 -25 0 -12 15 -15 85 -15 70 0 85 3 85 15 0 9 -11 20 -25 25 -23 9
-25 14 -25 75 l0 65 39 0 c37 0 41 -3 79 -65 39 -62 40 -65 22 -75 -11 -6 -20
-17 -20 -25 0 -12 16 -15 80 -15 66 0 80 3 80 16 0 9 -12 20 -27 26 -18 7 -44
36 -72 80 l-44 70 31 25 c73 56 62 167 -20 209 -39 20 -268 20 -268 0z m240
-46 c31 -16 43 -56 29 -97 -13 -42 -34 -53 -98 -53 l-51 0 0 86 0 87 50 -6
c27 -3 59 -11 70 -17z"/>
<path d="M1740 980 c0 -6 11 -16 25 -22 l25 -11 0 -174 0 -173 -25 -12 c-14
-6 -25 -18 -25 -26 0 -12 20 -14 128 -10 115 4 133 7 178 32 88 48 126 135
104 241 -14 66 -55 119 -115 146 -32 15 -66 19 -167 19 -81 0 -128 -4 -128
-10z m266 -49 c76 -35 107 -154 64 -248 -26 -59 -69 -83 -147 -83 l-63 0 0
175 0 175 53 0 c29 0 70 -9 93 -19z"/>
<path d="M2240 975 c0 -9 14 -21 30 -26 35 -13 35 -5 12 -194 l-17 -140 -32
-14 c-20 -9 -33 -22 -33 -33 0 -16 10 -18 90 -18 81 0 90 2 90 19 0 11 -11 23
-28 30 l-27 11 12 143 c6 78 12 147 13 152 1 6 23 -71 49 -170 l47 -180 31 -3
c36 -4 29 -22 83 198 17 69 34 134 39 145 5 12 12 -34 20 -130 13 -160 15
-150 -36 -181 -35 -23 -1 -35 88 -32 69 2 84 6 87 20 2 11 -8 20 -32 28 -20 6
-36 17 -36 23 -1 7 -9 77 -19 157 -12 90 -15 149 -9 157 5 6 20 14 33 17 14 4
25 13 25 21 0 12 -15 15 -75 15 l-74 0 -10 -37 c-6 -21 -25 -100 -44 -175 -18
-76 -36 -140 -39 -143 -3 -3 -25 74 -50 172 l-44 178 -72 3 c-60 2 -72 0 -72
-13z"/>
<path d="M3290 980 c0 -6 14 -16 30 -21 l30 -11 0 -174 0 -175 -30 -10 c-16
-6 -30 -17 -30 -25 0 -11 18 -14 80 -14 61 0 80 3 80 14 0 7 -9 20 -20 27 -20
13 -21 23 -18 159 l3 145 100 -172 c91 -157 102 -173 128 -173 l27 0 0 199 0
199 30 11 c54 18 34 31 -50 31 -63 0 -80 -3 -80 -14 0 -8 9 -18 20 -21 19 -6
20 -15 20 -142 0 -75 -3 -133 -7 -129 -5 4 -46 73 -93 154 l-86 147 -67 3
c-44 2 -67 -1 -67 -8z"/>
</g>
</svg>
